<?xml version="1.0" standalone="no"?>
<!DOCTYPE svg PUBLIC "-//W3C//DTD SVG 1.1//EN" "http://www.w3.org/Graphics/SVG/1.1/DTD/svg11.dtd" >
<svg xmlns="http://www.w3.org/2000/svg" xmlns:xlink="http://www.w3.org/1999/xlink" version="1.1">
<metadata>
Created by FontForge 20170731 at Fri Jul 30 15:10:41 1999
 By Aleksey,,,
(c)1999 - R.Gast - GreyWolf WebWorks (formerly DarkSide Productions) - scanned by Kevin Jameson
</metadata>
<defs>
<font id="Makisupa" horiz-adv-x="630" >
  <font-face 
    font-family="Makisupa"
    font-weight="400"
    font-stretch="normal"
    units-per-em="1000"
    panose-1="0 0 4 0 0 0 0 0 0 0"
    ascent="800"
    descent="-200"
    x-height="680"
    cap-height="850"
    bbox="-40 -200 1020 1100"
    underline-thickness="30"
    underline-position="-175"
    unicode-range="U+0020-2122"
  />
<missing-glyph horiz-adv-x="500" 
d="M63 0v1100h375v-1100h-375zM125 63h250v975h-250v-975z" />
    <glyph glyph-name=".notdef" horiz-adv-x="500" 
d="M63 0v1100h375v-1100h-375zM125 63h250v975h-250v-975z" />
    <glyph glyph-name=".null" horiz-adv-x="0" 
 />
    <glyph glyph-name="nonmarkingreturn" horiz-adv-x="300" 
 />
    <glyph glyph-name="space" unicode=" " horiz-adv-x="300" 
 />
    <glyph glyph-name="exclam" unicode="!" horiz-adv-x="230" 
d="M180 290q0 -17 -11.5 -28.5t-28.5 -11.5h-70q-17 0 -28.5 11.5t-11.5 28.5v520q0 17 11.5 28.5t28.5 11.5h70q17 0 28.5 -11.5t11.5 -28.5v-520zM180 75q0 -31 -22 -53t-53 -22t-53 22t-22 53t22 53t53 22t53 -22t22 -53z" />
    <glyph glyph-name="quotedbl" unicode="&#x22;" horiz-adv-x="460" 
d="M410 690q0 -17 -11.5 -28.5t-28.5 -11.5h-70q-17 0 -28.5 11.5t-11.5 28.5v170q0 17 11.5 28.5t28.5 11.5h70q17 0 28.5 -11.5t11.5 -28.5v-170zM180 690q0 -17 -11.5 -28.5t-28.5 -11.5h-70q-17 0 -28.5 11.5t-11.5 28.5v170q0 17 11.5 28.5t28.5 11.5h70
q17 0 28.5 -11.5t11.5 -28.5v-170z" />
    <glyph glyph-name="numbersign" unicode="#" 
d="M580 415q0 -17 -11.5 -28.5t-28.5 -11.5h-35v-35q0 -17 -11.5 -28.5t-28.5 -11.5h-70q-17 0 -28.5 11.5t-11.5 28.5v35h-100v-35q0 -17 -11.5 -28.5t-28.5 -11.5h-70q-17 0 -28.5 11.5t-11.5 28.5v35h-35q-17 0 -28.5 11.5t-11.5 28.5v70q0 17 11.5 28.5t28.5 11.5h35
v100h-35q-17 0 -28.5 11.5t-11.5 28.5v70q0 17 11.5 28.5t28.5 11.5h35v35q0 17 11.5 28.5t28.5 11.5h70q17 0 28.5 -11.5t11.5 -28.5v-35h100v35q0 17 11.5 28.5t28.5 11.5h70q17 0 28.5 -11.5t11.5 -28.5v-35h35q17 0 28.5 -11.5t11.5 -28.5v-70q0 -17 -11.5 -28.5
t-28.5 -11.5h-35v-100h35q17 0 28.5 -11.5t11.5 -28.5v-70zM355 525v100h-100v-100h100z" />
    <glyph glyph-name="dollar" unicode="$" horiz-adv-x="520" 
d="M470 241q0 -30 -21 -51l-82 -84q-21 -21 -50 -21v-41q0 -18 -13 -31t-32 -13h-44q-19 0 -32 13t-13 31v41q-29 0 -50 21l-82 84q-21 21 -21 51v48q0 19 13 32t31 13h52q18 0 31 -13t13 -32t20 -39.5t39 -20.5h42q19 0 39 20.5t20 39.5v4q0 19 -20 39.5t-39 20.5h-88
q-29 0 -50 21l-82 85q-21 21 -21 50v100q0 30 21 51l82 84q21 21 50 21v41q0 18 13 31t32 13h44q19 0 32 -13t13 -31v-41q29 0 50 -21l82 -84q21 -21 21 -51v-48q0 -19 -13 -32t-31 -13h-52q-18 0 -31 13t-13 32t-20 39.5t-39 20.5h-42q-19 0 -39 -20.5t-20 -39.5v-4
q0 -19 20 -39.5t39 -20.5h88q29 0 50 -21l82 -85q21 -21 21 -50v-100z" />
    <glyph glyph-name="percent" unicode="%" 
d="M294 671q0 -53 -35.5 -91t-86.5 -38h-20q-51 0 -86.5 38t-35.5 91v50q0 53 35.5 91t86.5 38h20q51 0 86.5 -38t35.5 -91v-50zM575 742l-410 -710q-12 -20 -35 -20q-10 0 -19 5l-61 35q-20 11 -20 34q0 11 6 21l410 710q12 20 34 20q11 0 20 -5l61 -35q20 -11 20 -34
q0 -11 -6 -21zM580 129q0 -53 -35.5 -91t-86.5 -38h-20q-51 0 -86.5 38t-35.5 91v50q0 53 35.5 91t86.5 38h20q51 0 86.5 -38t35.5 -91v-50zM192 671v50q0 21 -20 21h-20q-20 0 -20 -21v-50q0 -21 20 -21h20q20 0 20 21zM478 129v50q0 21 -20 21h-20q-20 0 -20 -21v-50
q0 -21 20 -21h20q20 0 20 21z" />
    <glyph glyph-name="ampersand" unicode="&#x26;" horiz-adv-x="689" 
d="M639 86q0 -18 -20 -40q-15 -15 -31 -30q-12 -12 -29 -12q-16 0 -28 11q-6 4 -68 55q-81 -70 -196 -70q-73 0 -130 29q-65 34 -92 97q-15 36 -15 73q0 114 138 190q-56 75 -56 131q0 78 61 122q53 38 131 38q77 0 130 -40q57 -44 57 -117q0 -53 -35 -95q-25 -29 -80 -64
q24 -30 74 -87q12 25 35 71q11 22 34 22q13 0 69 -26q24 -11 24 -37q0 -9 -4 -17q-29 -67 -54 -111q85 -71 85 -93zM357 525q0 45 -51 45q-21 0 -36 -12.5t-15 -31.5t41 -70q34 22 40 28q21 19 21 41zM363 161q-41 39 -117 132q-65 -41 -65 -87q0 -37 26.5 -61t62.5 -24
q49 0 93 40z" />
    <glyph glyph-name="quotesingle" unicode="'" horiz-adv-x="230" 
d="M180 690q0 -17 -11.5 -28.5t-28.5 -11.5h-70q-17 0 -28.5 11.5t-11.5 28.5v170q0 17 11.5 28.5t28.5 11.5h70q17 0 28.5 -11.5t11.5 -28.5v-170z" />
    <glyph glyph-name="parenleft" unicode="(" horiz-adv-x="367" 
d="M317 -110q0 -17 -11.5 -28.5t-28.5 -11.5h-62q-31 0 -53 22l-110 110q-22 22 -22 53v780q0 31 22 53l110 110q22 22 53 22h62q17 0 28.5 -11.5t11.5 -28.5v-70q0 -17 -11.5 -28.5t-28.5 -11.5q-31 0 -53 -22l-22 -22q-22 -22 -22 -53v-656q0 -31 22 -53l22 -22
q22 -22 53 -22q17 0 28.5 -11.5t11.5 -28.5v-70z" />
    <glyph glyph-name="parenright" unicode=")" horiz-adv-x="367" 
d="M317 35q0 -31 -22 -53l-110 -110q-22 -22 -53 -22h-62q-17 0 -28.5 11.5t-11.5 28.5v70q0 17 11.5 28.5t28.5 11.5q31 0 53 22l22 22q22 22 22 53v656q0 31 -22 53l-22 22q-22 22 -53 22q-17 0 -28.5 11.5t-11.5 28.5v70q0 17 11.5 28.5t28.5 11.5h62q31 0 53 -22
l110 -110q22 -22 22 -53v-780z" />
    <glyph glyph-name="asterisk" unicode="*" horiz-adv-x="349" 
d="M295 625q-10 -17 -32 -17q-25 0 -56 18q0 -76 -42 -76t-43 76q-31 -18 -55 -18q-22 0 -32 17q-5 8 -5 17q0 29 49 58q-49 29 -49 58q0 9 5 17q10 17 32 17q24 0 55 -18q1 76 43 76t42 -76q31 18 56 18q22 0 32 -17q5 -8 5 -16q0 -30 -50 -59q50 -29 50 -59q0 -8 -5 -16z
" />
    <glyph glyph-name="plus" unicode="+" 
d="M580 305q0 -17 -11.5 -28.5t-28.5 -11.5h-160v-160q0 -17 -11.5 -28.5t-28.5 -11.5h-70q-17 0 -28.5 11.5t-11.5 28.5v160h-160q-17 0 -28.5 11.5t-11.5 28.5v70q0 17 11.5 28.5t28.5 11.5h160v160q0 17 11.5 28.5t28.5 11.5h70q17 0 28.5 -11.5t11.5 -28.5v-160h160
q17 0 28.5 -11.5t11.5 -28.5v-70z" />
    <glyph glyph-name="comma" unicode="," horiz-adv-x="230" 
d="M180 75q0 -35 -45 -128q-48 -98 -75 -98q-13 0 -13 20q0 13 8.5 53t8.5 60q0 28 -13 41q-21 21 -21 52t22 53t53 22t53 -22t22 -53z" />
    <glyph glyph-name="hyphen" unicode="-" 
d="M580 305q0 -17 -11.5 -28.5t-28.5 -11.5h-470q-17 0 -28.5 11.5t-11.5 28.5v70q0 17 11.5 28.5t28.5 11.5h470q17 0 28.5 -11.5t11.5 -28.5v-70z" />
    <glyph glyph-name="hyphen" unicode="&#x2010;" 
d="M580 305q0 -17 -11.5 -28.5t-28.5 -11.5h-470q-17 0 -28.5 11.5t-11.5 28.5v70q0 17 11.5 28.5t28.5 11.5h470q17 0 28.5 -11.5t11.5 -28.5v-70z" />
    <glyph glyph-name="period" unicode="." horiz-adv-x="230" 
d="M180 75q0 -31 -22 -53t-53 -22t-53 22t-22 53t22 53t53 22t53 -22t22 -53z" />
    <glyph glyph-name="slash" unicode="/" 
d="M575 742l-410 -710q-12 -20 -35 -20q-10 0 -19 5l-61 35q-20 11 -20 34q0 11 6 21l410 710q12 20 34 20q11 0 20 -5l61 -35q20 -11 20 -34q0 -11 -6 -21z" />
    <glyph glyph-name="zero" unicode="0" 
d="M580 185q0 -31 -22 -53l-110 -110q-22 -22 -53 -22h-180q-31 0 -53 22l-110 110q-22 22 -22 53v480q0 31 22 53l110 110q22 22 53 22h180q31 0 53 -22l110 -110q22 -22 22 -53v-480zM430 247v356q0 31 -22 53l-22 22q-22 22 -53 22h-56q-31 0 -53 -22l-22 -22
q-22 -22 -22 -53v-356q0 -31 22 -53l22 -22q22 -22 53 -22h56q31 0 53 22l22 22q22 22 22 53zM355 400q0 -21 -14.5 -35.5t-35.5 -14.5t-35.5 14.5t-14.5 35.5v50q0 21 14.5 35.5t35.5 14.5t35.5 -14.5t14.5 -35.5v-50z" />
    <glyph glyph-name="one" unicode="1" horiz-adv-x="490" 
d="M440 40q0 -17 -11.5 -28.5t-28.5 -11.5h-330q-17 0 -28.5 11.5t-11.5 28.5v70q0 17 11.5 28.5t28.5 11.5h50q17 0 28.5 11.5t11.5 28.5v490h-90q-17 0 -28.5 11.5t-11.5 28.5q0 31 22 53l55 55q22 22 53 22h110q17 0 28.5 -11.5t11.5 -28.5v-620q0 -17 11.5 -28.5
t28.5 -11.5h50q17 0 28.5 -11.5t11.5 -28.5v-70z" />
    <glyph glyph-name="two" unicode="2" 
d="M580 40q0 -17 -11.5 -28.5t-28.5 -11.5h-470q-17 0 -28.5 11.5t-11.5 28.5v275q0 31 22 53l110 110q22 22 53 22h118q31 0 53 22l22 22q22 22 22 53v6q0 31 -22 53l-22 22q-22 22 -53 22h-56q-31 0 -53 -22l-22 -22q-22 -22 -22 -53q0 -16 -11.5 -28t-28.5 -12h-70
q-17 0 -28.5 11.5t-11.5 28.5v62q0 31 22 53l110 110q22 22 53 22h180q31 0 53 -22l110 -110q22 -22 22 -53v-130q0 -31 -22 -53l-110 -110q-22 -22 -53 -22h-118q-31 0 -53 -22l-22 -22q-22 -22 -22 -53v-63q0 -17 11.5 -28.5t28.5 -11.5h320q17 0 28.5 -11.5t11.5 -28.5
v-70z" />
    <glyph glyph-name="three" unicode="3" 
d="M580 185q0 -31 -22 -53l-110 -110q-22 -22 -53 -22h-180q-31 0 -53 22l-110 110q-22 22 -22 53v62q0 17 11.5 28.5t28.5 11.5h70q17 0 28.5 -11.5t11.5 -28.5q0 -31 22 -53l22 -22q22 -22 53 -22h56q31 0 53 22l22 22q22 22 22 53v6q0 31 -22 53l-22 22q-22 22 -53 22
h-53q-17 0 -28.5 11.5t-11.5 28.5v70q0 17 11.5 28.5t28.5 11.5h53q31 0 53 22l22 22q22 22 22 53v6q0 31 -22 53l-22 22q-22 22 -53 22h-56q-31 0 -53 -22l-22 -22q-22 -22 -22 -53q0 -17 -11.5 -28.5t-28.5 -11.5h-70q-17 0 -28.5 11.5t-11.5 28.5v62q0 31 22 53l110 110
q22 22 53 22h180q31 0 53 -22l110 -110q22 -22 22 -53v-130q0 -31 -22 -53l-57 -57l57 -57q22 -22 22 -53v-130z" />
    <glyph glyph-name="four" unicode="4" 
d="M580 40q0 -17 -11.5 -28.5t-28.5 -11.5h-70q-17 0 -28.5 11.5t-11.5 28.5v220q0 17 -11.5 28.5t-28.5 11.5h-284q-31 -1 -53 21t-23 53t22 54l400 400q21 21 53 22q30 1 52 -21t23 -54v-735zM430 470v76q0 20 -20 20q-8 0 -13 -5l-78 -78q-5 -5 -5 -13q0 -20 20 -20h76
q20 0 20 20z" />
    <glyph glyph-name="five" unicode="5" 
d="M580 185q0 -31 -22 -53l-110 -110q-22 -22 -53 -22h-180q-31 0 -53 22l-110 110q-22 22 -22 53v62q0 17 11.5 28.5t28.5 11.5h70q17 0 28.5 -11.5t11.5 -28.5q0 -31 22 -53l22 -22q22 -22 53 -22h56q31 0 53 22l22 22q22 22 22 53v56q0 31 -22 53l-22 22q-22 22 -53 22
h-263q-17 0 -28.5 11.5t-11.5 28.5v370q0 17 11.5 28.5t28.5 11.5h470q17 0 28.5 -11.5t11.5 -28.5v-70q0 -17 -11.5 -28.5t-28.5 -11.5h-320q-17 0 -28.5 -11.5t-11.5 -28.5v-70q0 -17 11.5 -28.5t28.5 -11.5h175q31 0 53 -22l110 -110q22 -22 22 -53v-180z" />
    <glyph glyph-name="six" unicode="6" 
d="M580 185q0 -31 -22 -53l-110 -110q-22 -22 -53 -22h-180q-31 0 -53 22l-110 110q-22 22 -22 53v130q0 9 4 22l195 498q12 20 34 20q11 0 20 -5l61 -35q20 -11 20 -34q0 -11 -6 -21l-105 -260h142q31 0 53 -22l110 -110q22 -22 22 -53v-130zM430 247q0 31 -22 53l-22 22
q-22 22 -53 22l-56 6q-31 0 -53 -22l-22 -22q-22 -22 -22 -53v-6q0 -31 22 -53l22 -22q22 -22 53 -22h56q31 0 53 22l22 22q22 22 22 53z" />
    <glyph glyph-name="seven" unicode="7" 
d="M580 775q0 -21 -9 -37l-269 -661q-9 -16 -9 -37q0 -17 -11.5 -28.5t-28.5 -11.5h-70q-17 0 -28.5 11.5t-11.5 28.5v35q0 21 9 37l239 588h-321q-17 0 -28.5 11.5t-11.5 28.5v70q0 17 11.5 28.5t28.5 11.5h435q31 0 53 -22t22 -53z" />
    <glyph glyph-name="eight" unicode="8" 
d="M580 185q0 -31 -22 -53l-110 -110q-22 -22 -53 -22h-180q-31 0 -53 22l-110 110q-22 22 -22 53v130q0 31 22 53l57 57l-57 57q-22 22 -22 53v130q0 31 22 53l110 110q22 22 53 22h180q31 0 53 -22l110 -110q22 -22 22 -53v-130q0 -31 -22 -53l-57 -57l57 -57
q22 -22 22 -53v-130zM430 597v6q0 31 -22 53l-22 22q-22 22 -53 22h-56q-31 0 -53 -22l-22 -22q-22 -22 -22 -53t22 -53l22 -22q22 -22 53 -22l56 -6q31 0 53 22l22 22q22 22 22 53zM430 247v6q0 31 -22 53l-22 22q-22 22 -53 22h-53q-31 0 -53 -22l-22 -22q-22 -22 -22 -53
q0 -40 19 -59l22 -22q22 -22 53 -22h56q31 0 53 22l22 22q22 22 22 53z" />
    <glyph glyph-name="nine" unicode="9" 
d="M580 535q0 -9 -4 -22l-195 -498q-12 -20 -35 -20q-10 0 -19 5l-61 35q-20 11 -20 34q0 11 6 21l105 260h-142q-31 0 -53 22l-110 110q-22 22 -22 53v130q0 31 22 53l110 110q22 22 53 22h180q31 0 53 -22l110 -110q22 -22 22 -53v-130zM430 597v6q0 31 -22 53l-22 22
q-22 22 -53 22h-56q-31 0 -53 -22l-22 -22q-22 -22 -22 -53t22 -53l22 -22q22 -22 53 -22l56 -6q31 0 53 22l22 22q22 22 22 53z" />
    <glyph glyph-name="colon" unicode=":" horiz-adv-x="230" 
d="M180 475q0 -31 -22 -53t-53 -22t-53 22t-22 53t22 53t53 22t53 -22t22 -53zM180 75q0 -31 -22 -53t-53 -22t-53 22t-22 53t22 53t53 22t53 -22t22 -53z" />
    <glyph glyph-name="semicolon" unicode=";" horiz-adv-x="230" 
d="M180 475q0 -31 -22 -53t-53 -22t-53 22t-22 53t22 53t53 22t53 -22t22 -53zM180 75q0 -35 -45 -128q-48 -98 -75 -98q-13 0 -13 20q0 13 8.5 53t8.5 60q0 28 -13 41q-21 21 -21 52t22 53t53 22t53 -22t22 -53z" />
    <glyph glyph-name="less" unicode="&#x3c;" horiz-adv-x="485" 
d="M423 87l-50 -50q-12 -12 -28 -12t-28 12l-275 275q-12 8 -12 28t12 28l275 275q12 12 28 12t28 -12l50 -50q12 -12 12 -28t-12 -28l-169 -169q-12 -8 -12 -28t12 -28l169 -169q12 -12 12 -28t-12 -28z" />
    <glyph glyph-name="equal" unicode="=" 
d="M580 430q0 -17 -11.5 -28.5t-28.5 -11.5h-470q-17 0 -28.5 11.5t-11.5 28.5v70q0 17 11.5 28.5t28.5 11.5h470q17 0 28.5 -11.5t11.5 -28.5v-70zM580 180q0 -17 -11.5 -28.5t-28.5 -11.5h-470q-17 0 -28.5 11.5t-11.5 28.5v70q0 17 11.5 28.5t28.5 11.5h470
q17 0 28.5 -11.5t11.5 -28.5v-70z" />
    <glyph glyph-name="greater" unicode="&#x3e;" horiz-adv-x="473" 
d="M423 340q0 -20 -12 -28l-275 -275q-12 -12 -28 -12t-28 12l-50 50q-12 12 -12 28t12 28l169 169q12 8 12 28t-12 28l-169 169q-12 12 -12 28t12 28l50 50q12 12 28 12t28 -12l275 -275q12 -8 12 -28z" />
    <glyph glyph-name="question" unicode="?" 
d="M580 535q0 -31 -22 -53l-110 -110q-22 -22 -53 -22h-18q-31 0 -53 -22l-22 -22q-22 -22 -22 -53q0 -17 -11.5 -28.5t-28.5 -11.5h-70q-17 0 -28.5 11.5t-11.5 28.5v62q0 31 22 53l110 110q22 22 53 22h18q31 0 53 22l22 22q22 22 22 53v6q0 31 -22 53l-22 22
q-22 22 -53 22h-56q-31 0 -53 -22l-22 -22q-22 -22 -22 -53q0 -16 -11.5 -28t-28.5 -12h-70q-17 0 -28.5 11.5t-11.5 28.5v62q0 31 22 53l110 110q22 22 53 22h180q31 0 53 -22l110 -110q22 -22 22 -53v-130zM280 75q0 -31 -22 -53t-53 -22t-53 22t-22 53t22 53t53 22
t53 -22t22 -53z" />
    <glyph glyph-name="at" unicode="@" horiz-adv-x="680" 
d="M630 340q0 -124 -88 -212t-212 -88t-212 88t-88 212t88 212t212 88t212 -88t88 -212zM550 340q0 91 -64.5 155.5t-155.5 64.5t-155.5 -64.5t-64.5 -155.5t64.5 -155.5t155.5 -64.5t155.5 64.5t64.5 155.5zM443 189q0 -23 -23 -23h-27q-22 0 -22 23v66q0 9 -9 9h-65
q-8 0 -8 -9v-66q0 -23 -22 -23h-27q-23 0 -23 23v220q0 14 11 25l67 69q11 11 25 11h20q14 0 25 -11l67 -69q11 -11 11 -25v-220zM371 346v39q0 11 -16 27l-20 18q-1 2 -5 2t-5 -2l-20 -18q-16 -16 -16 -27v-39q0 -8 8 -8h65q9 0 9 8z" />
    <glyph glyph-name="A" unicode="A" 
d="M580 40q0 -17 -11.5 -28.5t-28.5 -11.5h-70q-17 0 -28.5 11.5t-11.5 28.5l-1 170q0 17 -11.5 28.5t-28.5 11.5h-169q-17 0 -28.5 -11.5t-11.5 -28.5v-170q0 -17 -11.5 -28.5t-28.5 -11.5h-70q-17 0 -28.5 11.5t-11.5 28.5v560q0 31 22 53l175 175q22 22 53 22h50
q31 0 53 -22l175 -175q22 -22 22 -53v-560zM430 440v98q0 31 -22 53l-75 75q-8 12 -28 12t-28 -12l-75 -75q-22 -22 -22 -53v-98q0 -17 11.5 -28.5t28.5 -11.5h169q17 0 29 12t12 28z" />
    <glyph glyph-name="B" unicode="B" 
d="M580 185q0 -31 -22 -53l-110 -110q-22 -22 -53 -22h-325q-17 0 -28.5 11.5t-11.5 28.5v770q0 17 11.5 28.5t28.5 11.5h325q31 0 53 -22l110 -110q22 -22 22 -53v-130q0 -31 -22 -53l-57 -57l57 -57q22 -22 22 -53v-130zM430 597v6q0 31 -22 53l-22 22q-22 22 -53 22h-113
q-17 0 -28.5 -11.5t-11.5 -28.5v-120q0 -17 11.5 -28.5t28.5 -11.5h113q31 0 53 22l22 22q22 22 22 53zM430 247v6q0 31 -22 53l-22 22q-22 22 -53 22h-113q-17 0 -28.5 -11.5t-11.5 -28.5v-120q0 -17 11.5 -28.5t28.5 -11.5h113q31 0 53 22l22 22q22 22 22 53z" />
    <glyph glyph-name="C" unicode="C" 
d="M580 185q0 -31 -22 -53l-110 -110q-22 -22 -53 -22h-180q-31 0 -53 22l-110 110q-22 22 -22 53v480q0 31 22 53l110 110q22 22 53 22h180q31 0 53 -22l110 -110q22 -22 22 -53v-125q0 -17 -11.5 -28.5t-28.5 -11.5h-70q-17 0 -28.5 11.5t-11.5 28.5v63q0 31 -22 53
l-22 22q-22 22 -53 22h-56q-31 0 -53 -22l-22 -22q-22 -22 -22 -53v-356q0 -31 22 -53l22 -22q22 -22 53 -22h56q31 0 53 22l22 22q22 22 22 53q0 17 11.5 28.5t28.5 11.5h70q17 0 28.5 -11.5t11.5 -28.5v-62z" />
    <glyph glyph-name="D" unicode="D" 
d="M580 250q0 -31 -22 -53l-175 -175q-22 -22 -53 -22h-260q-17 0 -28.5 11.5t-11.5 28.5v770q0 17 11.5 28.5t28.5 11.5h260q31 0 53 -22l175 -175q22 -22 22 -53v-350zM430 312v226q0 31 -22 53l-87 87q-22 22 -53 22h-48q-17 0 -28.5 -11.5t-11.5 -28.5v-470
q0 -17 11.5 -28.5t28.5 -11.5h48q31 0 53 22l87 87q22 22 22 53z" />
    <glyph glyph-name="E" unicode="E" 
d="M580 40q0 -17 -11.5 -28.5t-28.5 -11.5h-470q-17 0 -28.5 11.5t-11.5 28.5v770q0 17 11.5 28.5t28.5 11.5h470q17 0 28.5 -11.5t11.5 -28.5v-70q0 -17 -11.5 -28.5t-28.5 -11.5h-320q-17 0 -28.5 -11.5t-11.5 -28.5v-120q0 -17 11.5 -28.5t28.5 -11.5h220
q17 0 28.5 -11.5t11.5 -28.5v-70q0 -17 -11.5 -28.5t-28.5 -11.5h-220q-17 0 -28.5 -11.5t-11.5 -28.5v-120q0 -17 11.5 -28.5t28.5 -11.5h320q17 0 28.5 -11.5t11.5 -28.5v-70z" />
    <glyph glyph-name="F" unicode="F" 
d="M580 740q0 -17 -11.5 -28.5t-28.5 -11.5h-320q-17 0 -28.5 -11.5t-11.5 -28.5v-120q0 -17 11.5 -28.5t28.5 -11.5h220q17 0 28.5 -11.5t11.5 -28.5v-70q0 -17 -11.5 -28.5t-28.5 -11.5h-220q-17 0 -28.5 -11.5t-11.5 -28.5v-270q0 -17 -11.5 -28.5t-28.5 -11.5h-70
q-17 0 -28.5 11.5t-11.5 28.5v770q0 17 11.5 28.5t28.5 11.5h470q17 0 28.5 -11.5t11.5 -28.5v-70z" />
    <glyph glyph-name="G" unicode="G" 
d="M580 40q0 -17 -11.5 -28.5t-28.5 -11.5h-325q-31 0 -53 22l-110 110q-22 22 -22 53v480q0 31 22 53l110 110q22 22 53 22h180q31 0 53 -22l110 -110q22 -22 22 -53v-62q0 -17 -11.5 -28.5t-28.5 -11.5h-70q-17 0 -28.5 11.5t-11.5 28.5q0 31 -22 53l-22 22q-22 22 -53 22
h-56q-31 0 -53 -22l-22 -22q-22 -22 -22 -53v-356q0 -31 22 -53l22 -22q22 -22 53 -22h53q41 0 70.5 29.5t29.5 70.5v60q0 17 -11.5 28.5t-28.5 11.5h-70q-17 0 -28.5 11.5t-11.5 28.5v70q0 17 11.5 28.5t28.5 11.5h220q17 0 28.5 -11.5t11.5 -28.5v-420z" />
    <glyph glyph-name="H" unicode="H" 
d="M580 40q0 -17 -11.5 -28.5t-28.5 -11.5h-70q-17 0 -28.5 11.5t-11.5 28.5v270q0 17 -11.5 28.5t-28.5 11.5h-170q-17 0 -28.5 -11.5t-11.5 -28.5v-270q0 -17 -11.5 -28.5t-28.5 -11.5h-70q-17 0 -28.5 11.5t-11.5 28.5v770q0 17 11.5 28.5t28.5 11.5h70q17 0 28.5 -11.5
t11.5 -28.5v-270q0 -17 11.5 -28.5t28.5 -11.5h170q17 0 28.5 11.5t11.5 28.5v270q0 17 11.5 28.5t28.5 11.5h70q17 0 28.5 -11.5t11.5 -28.5v-770z" />
    <glyph glyph-name="I" unicode="I" 
d="M580 40q0 -17 -11.5 -28.5t-28.5 -11.5h-470q-17 0 -28.5 11.5t-11.5 28.5v70q0 17 11.5 28.5t28.5 11.5h120q17 0 28.5 11.5t11.5 28.5v470q0 17 -11.5 28.5t-28.5 11.5h-120q-17 0 -28.5 11.5t-11.5 28.5v70q0 17 11.5 28.5t28.5 11.5h470q17 0 28.5 -11.5t11.5 -28.5
v-70q0 -17 -11.5 -28.5t-28.5 -11.5h-120q-17 0 -28.5 -11.5t-11.5 -28.5v-470q0 -17 11.5 -28.5t28.5 -11.5h120q17 0 28.5 -11.5t11.5 -28.5v-70z" />
    <glyph glyph-name="J" unicode="J" 
d="M580 185q0 -31 -22 -53l-110 -110q-22 -22 -53 -22h-180q-31 0 -53 22l-110 110q-22 22 -22 53v62q0 17 11.5 28.5t28.5 11.5h70q17 0 28.5 -11.5t11.5 -28.5q0 -31 22 -53l22 -22q22 -22 53 -22h56q31 0 53 22l22 22q22 22 22 53v413q0 17 -11.5 28.5t-28.5 11.5h-100
q-17 0 -28.5 11.5t-11.5 28.5v70q0 17 11.5 28.5t28.5 11.5h250q17 0 28.5 -11.5t11.5 -28.5v-625z" />
    <glyph glyph-name="K" unicode="K" 
d="M580 40q0 -17 -11.5 -28.5t-28.5 -11.5h-70q-17 0 -28.5 11.5t-11.5 28.5v50q0 12 -6 22l-116 219q-12 19 -34 19h-54q-17 0 -28.5 -11.5t-11.5 -28.5v-270q0 -17 -11.5 -28.5t-28.5 -11.5h-70q-17 0 -28.5 11.5t-11.5 28.5v770q0 17 11.5 28.5t28.5 11.5h70
q17 0 28.5 -11.5t11.5 -28.5v-270q0 -17 11.5 -28.5t28.5 -11.5h54q22 0 34 19l116 219q6 10 6 22v50q0 17 11.5 28.5t28.5 11.5h70q17 0 28.5 -11.5t11.5 -28.5v-86q0 -12 -6 -22l-144 -265q-3 -5 -3 -12t3 -12l144 -265q6 -10 6 -22v-86z" />
    <glyph glyph-name="L" unicode="L" 
d="M580 40q0 -17 -11.5 -28.5t-28.5 -11.5h-470q-17 0 -28.5 11.5t-11.5 28.5v770q0 17 11.5 28.5t28.5 11.5h70q17 0 28.5 -11.5t11.5 -28.5v-620q0 -17 11.5 -28.5t28.5 -11.5h320q17 0 28.5 -11.5t11.5 -28.5v-70z" />
    <glyph glyph-name="M" unicode="M" 
d="M580 40q0 -17 -11.5 -28.5t-28.5 -11.5h-70q-17 0 -28.5 11.5t-11.5 28.5v453l-64 -111q-22 -31 -61 -31t-61 31l-64 111v-453q0 -17 -11.5 -28.5t-28.5 -11.5h-70q-17 0 -28.5 11.5t-11.5 28.5v770q0 17 11.5 28.5t28.5 11.5h35q31 0 53 -22l147 -254l147 254
q22 22 53 22h35q17 0 28.5 -11.5t11.5 -28.5v-770z" />
    <glyph glyph-name="N" unicode="N" 
d="M580 40q0 -17 -11.5 -28.5t-28.5 -11.5h-35q-31 0 -53 22l-272 471v-453q0 -17 -11.5 -28.5t-28.5 -11.5h-70q-17 0 -28.5 11.5t-11.5 28.5v770q0 17 11.5 28.5t28.5 11.5h35q31 0 53 -22l272 -471v453q0 17 11.5 28.5t28.5 11.5h70q17 0 28.5 -11.5t11.5 -28.5v-770z
" />
    <glyph glyph-name="O" unicode="O" 
d="M580 185q0 -31 -22 -53l-110 -110q-22 -22 -53 -22h-180q-31 0 -53 22l-110 110q-22 22 -22 53v480q0 31 22 53l110 110q22 22 53 22h180q31 0 53 -22l110 -110q22 -22 22 -53v-480zM430 247v356q0 31 -22 53l-22 22q-22 22 -53 22h-56q-31 0 -53 -22l-22 -22
q-22 -22 -22 -53v-356q0 -31 22 -53l22 -22q22 -22 53 -22h56q31 0 53 22l22 22q22 22 22 53z" />
    <glyph glyph-name="P" unicode="P" 
d="M580 535q0 -31 -22 -53l-110 -110q-22 -22 -53 -22h-175q-17 0 -28.5 -11.5t-11.5 -28.5v-270q0 -17 -11.5 -28.5t-28.5 -11.5h-70q-17 0 -28.5 11.5t-11.5 28.5v770q0 17 11.5 28.5t28.5 11.5h325q31 0 53 -22l110 -110q22 -22 22 -53v-130zM430 597v6q0 31 -22 53
l-22 22q-22 22 -53 22h-113q-17 0 -28.5 -11.5t-11.5 -28.5v-120q0 -17 11.5 -28.5t28.5 -11.5h113q31 0 53 22l22 22q22 22 22 53z" />
    <glyph glyph-name="Q" unicode="Q" 
d="M580 250q0 -64 -30 -119l17 -17q13 -13 13 -31t-13 -31l-39 -39q-13 -13 -31 -13t-31 13l-17 17q-55 -30 -119 -30h-50q-104 0 -177 73t-73 177v350q0 104 73 177t177 73h50q104 0 177 -73t73 -177v-350zM430 251v349q0 41 -29.5 70.5t-70.5 29.5h-50q-41 0 -70.5 -29.5
t-29.5 -70.5v-350q0 -41 29.5 -70.5t70.5 -29.5h49l-36 36q-13 13 -13 31t13 31l39 39q13 13 31 13t31 -13z" />
    <glyph glyph-name="R" unicode="R" 
d="M580 40q0 -17 -11.5 -28.5t-28.5 -11.5h-70q-17 0 -28.5 11.5t-11.5 28.5v213q0 31 -22 53l-22 22q-22 22 -53 22h-113q-17 0 -28.5 -11.5t-11.5 -28.5v-270q0 -17 -11.5 -28.5t-28.5 -11.5h-70q-17 0 -28.5 11.5t-11.5 28.5v770q0 17 11.5 28.5t28.5 11.5h325
q31 0 53 -22l110 -110q22 -22 22 -53v-130q0 -31 -22 -53l-57 -57l57 -57q22 -22 22 -53v-275zM430 597v6q0 31 -22 53l-22 22q-22 22 -53 22h-113q-17 0 -28.5 -11.5t-11.5 -28.5v-120q0 -17 11.5 -28.5t28.5 -11.5h113q31 0 53 22l22 22q22 22 22 53z" />
    <glyph glyph-name="S" unicode="S" 
d="M582 185q0 -31 -22 -53l-110 -110q-22 -22 -53 -22h-180q-31 0 -53 22l-110 110q-22 22 -22 53v62q0 17 11.5 28.5t28.5 11.5h70q17 0 28.5 -11.5t11.5 -28.5q0 -31 22 -53l22 -22q22 -22 53 -22h56q31 0 53 22l22 22q22 22 22 53v6q0 31 -22 53l-22 22q-22 22 -53 22
h-118q-31 0 -53 22l-110 110q-22 22 -22 53v130q0 31 22 53l110 110q22 22 53 22h180q31 0 53 -22l110 -110q22 -22 22 -53v-62q0 -17 -11.5 -28.5t-28.5 -11.5h-70q-16 0 -28 12t-12 28q0 31 -22 53l-22 22q-22 22 -53 22h-56q-31 0 -53 -22l-22 -22q-22 -22 -22 -53v-6
q0 -31 22 -53l22 -22q22 -22 53 -22h118q31 0 53 -22l110 -110q22 -22 22 -53v-130z" />
    <glyph glyph-name="T" unicode="T" 
d="M580 740q0 -17 -11.5 -28.5t-28.5 -11.5h-120q-17 0 -28.5 -11.5t-11.5 -28.5v-620q0 -17 -11.5 -28.5t-28.5 -11.5h-70q-17 0 -28.5 11.5t-11.5 28.5v620q0 17 -11.5 28.5t-28.5 11.5h-120q-17 0 -28.5 11.5t-11.5 28.5v70q0 17 11.5 28.5t28.5 11.5h470
q17 0 28.5 -11.5t11.5 -28.5v-70z" />
    <glyph glyph-name="U" unicode="U" 
d="M580 185q0 -31 -22 -53l-110 -110q-22 -22 -53 -22h-180q-31 0 -53 22l-110 110q-22 22 -22 53v625q0 17 11.5 28.5t28.5 11.5h70q17 0 28.5 -11.5t11.5 -28.5v-563q0 -31 22 -53l22 -22q22 -22 53 -22h56q31 0 53 22l22 22q22 22 22 53v563q0 17 11.5 28.5t28.5 11.5h70
q17 0 28.5 -11.5t11.5 -28.5v-625z" />
    <glyph glyph-name="V" unicode="V" 
d="M580 424q0 -21 -9 -37l-205 -356q-22 -31 -61 -31t-61 31l-205 356q-9 16 -9 37v386q0 17 11.5 28.5t28.5 11.5h70q17 0 28.5 -11.5t11.5 -28.5v-350q0 -21 9 -37l116 -200l116 200q9 16 9 37v350q0 17 11.5 28.5t28.5 11.5h70q17 0 28.5 -11.5t11.5 -28.5v-386z" />
    <glyph glyph-name="W" unicode="W" 
d="M580 40q0 -17 -11.5 -28.5t-28.5 -11.5h-35q-31 0 -53 22l-147 254l-147 -254q-22 -22 -53 -22h-35q-17 0 -28.5 11.5t-11.5 28.5v770q0 17 11.5 28.5t28.5 11.5h70q17 0 28.5 -11.5t11.5 -28.5v-453l64 111q22 31 61 31t61 -31l64 -111v453q0 17 11.5 28.5t28.5 11.5h70
q17 0 28.5 -11.5t11.5 -28.5v-770z" />
    <glyph glyph-name="X" unicode="X" 
d="M580 40q0 -17 -11.5 -28.5t-28.5 -11.5h-70q-17 0 -28.5 11.5t-11.5 28.5q-1 7 -6 22l-119 269l-119 -269q-1 -3 -6 -22q0 -17 -11.5 -28.5t-28.5 -11.5h-70q-17 0 -28.5 11.5t-11.5 28.5v36q0 12 6 22l147 315q3 5 3 12t-3 12l-147 315q-6 13 -6 22v36q0 17 11.5 28.5
t28.5 11.5h70q29 0 40 -40q1 -7 6 -22l119 -269l119 269q1 3 6 22q11 40 40 40h70q17 0 28.5 -11.5t11.5 -28.5v-36q0 -9 -6 -22l-147 -315q-3 -5 -3 -12t3 -12l147 -315q6 -10 6 -22v-36z" />
    <glyph glyph-name="Y" unicode="Y" 
d="M580 578q0 -31 -22 -53l-175 -175q-3 -3 -3 -17v-293q0 -17 -11.5 -28.5t-28.5 -11.5h-70q-17 0 -28.5 11.5t-11.5 28.5v293q0 14 -3 17l-175 175q-22 22 -22 53v232q0 17 11.5 28.5t28.5 11.5h70q17 0 28.5 -11.5t11.5 -28.5v-170q0 -31 22 -53l75 -75q8 -12 28 -12
t28 12l75 75q22 22 22 53v170q0 17 11.5 28.5t28.5 11.5h70q17 0 28.5 -11.5t11.5 -28.5v-232z" />
    <glyph glyph-name="Z" unicode="Z" 
d="M580 40q0 -17 -11.5 -28.5t-28.5 -11.5h-435q-31 0 -53 22t-22 53q0 21 9 37l339 588h-308q-17 0 -28.5 11.5t-11.5 28.5v70q0 17 11.5 28.5t28.5 11.5h435q31 0 53 -22t22 -53q0 -21 -9 -37l-339 -588h308q17 0 28.5 -11.5t11.5 -28.5v-70z" />
    <glyph glyph-name="bracketleft" unicode="[" horiz-adv-x="410" 
d="M360 -110q0 -17 -11.5 -28.5t-28.5 -11.5h-250q-17 0 -28.5 11.5t-11.5 28.5v1070q0 17 11.5 28.5t28.5 11.5h250q17 0 28.5 -11.5t11.5 -28.5v-70q0 -17 -11.5 -28.5t-28.5 -11.5h-100q-17 0 -28.5 -11.5t-11.5 -28.5v-770q0 -17 11.5 -28.5t28.5 -11.5h100
q17 0 28.5 -11.5t11.5 -28.5v-70z" />
    <glyph glyph-name="backslash" unicode="\" 
d="M575 107q6 -10 6 -21q0 -23 -20 -34l-61 -35q-9 -5 -20 -5q-22 0 -34 20l-410 710q-6 10 -6 21q0 23 20 34l61 35q9 5 19 5q23 0 35 -20z" />
    <glyph glyph-name="bracketright" unicode="]" horiz-adv-x="410" 
d="M360 -110q0 -17 -11.5 -28.5t-28.5 -11.5h-250q-17 0 -28.5 11.5t-11.5 28.5v70q0 17 11.5 28.5t28.5 11.5h100q17 0 28.5 11.5t11.5 28.5v770q0 17 -11.5 28.5t-28.5 11.5h-100q-17 0 -28.5 11.5t-11.5 28.5v70q0 17 11.5 28.5t28.5 11.5h250q17 0 28.5 -11.5
t11.5 -28.5v-1070z" />
    <glyph glyph-name="asciicircum" unicode="^" horiz-adv-x="422" 
d="M362 723q1 -6 -11 -6q-24 0 -58 14l-92 38l-92 -38q-34 -14 -58 -14q-12 0 -11 6q-10 -1 -10 13q0 34 22 52l121 100q19 16 28 12q9 4 28 -12l121 -100q22 -18 22 -52q0 -14 -10 -13z" />
    <glyph glyph-name="underscore" unicode="_" 
d="M670 -110q0 -17 -11.5 -28.5t-28.5 -11.5h-630q-17 0 -28.5 11.5t-11.5 28.5v70q0 17 11.5 28.5t28.5 11.5h630q17 0 28.5 -11.5t11.5 -28.5v-70z" />
    <glyph glyph-name="grave" unicode="`" horiz-adv-x="340" 
d="M267 699q-24 0 -53 12l-170 71q-14 6 -14 23q0 19 14 33l50 50q12 12 28 12t28 -12l121 -120q19 -19 19 -45q0 -24 -23 -24z" />
    <glyph glyph-name="a" unicode="a" horiz-adv-x="520" 
d="M470 45q0 -19 -13 -32t-31 -13h-52q-18 0 -31 13t-13 32l-1 130q0 17 -16 17h-127q-16 0 -16 -17v-130q0 -19 -13 -32t-31 -13h-52q-18 0 -31 13t-13 32v429q0 30 21 51l131 134q21 21 49 21h38q28 0 49 -21l131 -134q21 -21 21 -51v-429zM330 351v76q0 21 -31 53
q-20 17 -39 35q-3 4 -10 4t-10 -4q-19 -18 -39 -35q-31 -32 -31 -53v-76q0 -16 16 -16h127q17 0 17 16z" />
    <glyph glyph-name="b" unicode="b" horiz-adv-x="520" 
d="M470 156q0 -30 -21 -51l-82 -84q-21 -21 -50 -21h-243q-18 0 -31 13t-13 32v590q0 19 13 32t31 13h243q29 0 50 -21l82 -84q21 -21 21 -51v-100q0 -25 -17 -47q-2 -2 -36 -37q34 -35 36 -37q17 -22 17 -47v-100zM330 472v4q0 19 -20 39.5t-39 20.5h-85q-16 0 -16 -16v-92
q0 -16 16 -16h85q19 0 39 20.5t20 39.5zM330 204v4q0 19 -20 39.5t-39 20.5h-85q-16 0 -16 -16v-92q0 -16 16 -16h85q19 0 39 20.5t20 39.5z" />
    <glyph glyph-name="c" unicode="c" horiz-adv-x="520" 
d="M470 156q0 -30 -21 -51l-82 -84q-21 -21 -50 -21h-134q-29 0 -50 21l-82 84q-21 21 -21 51v368q0 30 21 51l82 84q21 21 50 21h134q29 0 50 -21l82 -84q21 -21 21 -51v-96q0 -19 -13 -32t-31 -13h-52q-18 0 -31 13t-13 32v48q0 19 -20 39.5t-39 20.5h-42q-19 0 -39 -20.5
t-20 -39.5v-272q0 -19 20 -39.5t39 -20.5h42q19 0 39 20.5t20 39.5t13 32t31 13h52q18 0 31 -13t13 -32v-48z" />
    <glyph glyph-name="d" unicode="d" horiz-adv-x="520" 
d="M470 206q0 -30 -21 -51l-131 -134q-21 -21 -49 -21h-195q-18 0 -31 13t-13 32v590q0 19 13 32t31 13h195q28 0 49 -21l131 -134q21 -21 21 -51v-268zM330 253v174q0 17 -13 30l-65 67q-12 12 -30 12h-36q-16 0 -16 -16v-360q0 -16 16 -16h36q18 0 30 12l65 67
q13 13 13 30z" />
    <glyph glyph-name="e" unicode="e" horiz-adv-x="520" 
d="M470 45q0 -19 -13 -32t-31 -13h-352q-18 0 -31 13t-13 32v590q0 19 13 32t31 13h352q18 0 31 -13t13 -32v-54q0 -19 -13 -32t-31 -13h-240q-16 0 -16 -16v-92q0 -16 16 -16h165q18 0 31 -13t13 -32v-54q0 -19 -13 -32t-31 -13h-165q-16 0 -16 -16v-92q0 -16 16 -16h240
q18 0 31 -13t13 -32v-54z" />
    <glyph glyph-name="f" unicode="f" horiz-adv-x="520" 
d="M470 581q0 -19 -13 -32t-31 -13h-240q-16 0 -16 -16v-92q0 -16 16 -16h165q18 0 31 -13t13 -32v-54q0 -19 -13 -32t-31 -13h-165q-16 0 -16 -16v-207q0 -19 -13 -32t-31 -13h-52q-18 0 -31 13t-13 32v590q0 19 13 32t31 13h352q18 0 31 -13t13 -32v-54z" />
    <glyph glyph-name="g" unicode="g" horiz-adv-x="520" 
d="M470 45q0 -19 -13 -32t-31 -13h-243q-29 0 -50 21l-82 84q-21 21 -21 51v368q0 30 21 51l82 84q21 21 50 21h134q29 0 50 -21l82 -84q21 -21 21 -51v-48q0 -19 -13 -32t-31 -13h-52q-18 0 -31 13t-13 32t-20 39.5t-39 20.5h-42q-19 0 -39 -20.5t-20 -39.5v-272
q0 -19 20 -39.5t39 -20.5h40q25 0 43 18t18 44v46q0 16 -16 16h-53q-18 0 -31 13t-13 32v54q0 19 13 32t31 13h165q18 0 31 -13t13 -32v-322z" />
    <glyph glyph-name="h" unicode="h" horiz-adv-x="520" 
d="M470 45q0 -19 -13 -32t-31 -13h-52q-18 0 -31 13t-13 32v207q0 16 -16 16h-128q-16 0 -16 -16v-207q0 -19 -13 -32t-31 -13h-52q-18 0 -31 13t-13 32v590q0 19 13 32t31 13h52q18 0 31 -13t13 -32v-207q0 -16 16 -16h128q16 0 16 16v207q0 19 13 32t31 13h52q18 0 31 -13
t13 -32v-590z" />
    <glyph glyph-name="i" unicode="i" horiz-adv-x="520" 
d="M470 45q0 -19 -13 -32t-31 -13h-352q-18 0 -31 13t-13 32v54q0 19 13 32t31 13h90q16 0 16 16v360q0 16 -16 16h-90q-18 0 -31 13t-13 32v54q0 19 13 32t31 13h352q18 0 31 -13t13 -32v-54q0 -19 -13 -32t-31 -13h-90q-16 0 -16 -16v-360q0 -16 16 -16h90q18 0 31 -13
t13 -32v-54z" />
    <glyph glyph-name="j" unicode="j" horiz-adv-x="520" 
d="M470 156q0 -30 -21 -51l-82 -84q-21 -21 -50 -21h-134q-29 0 -50 21l-82 84q-21 21 -21 51v48q0 19 13 32t31 13h52q18 0 31 -13t13 -32t20 -39.5t39 -20.5h42q19 0 39 20.5t20 39.5v316q0 16 -16 16h-75q-18 0 -31 13t-13 32v54q0 19 13 32t31 13h187q18 0 31 -13
t13 -32v-479z" />
    <glyph glyph-name="k" unicode="k" horiz-adv-x="520" 
d="M470 45q0 -19 -13 -32t-31 -13h-52q-18 0 -31 13t-13 32v39q0 3 -3 9l-87 168q-4 7 -13 7h-41q-16 0 -16 -16v-207q0 -19 -13 -32t-31 -13h-52q-18 0 -31 13t-13 32v590q0 19 13 32t31 13h52q18 0 31 -13t13 -32v-207q0 -16 16 -16h41q9 0 13 7l87 168q3 6 3 9v39
q0 19 13 32t31 13h52q18 0 31 -13t13 -32v-66q0 -13 -6 -24l-108 -203v-4l108 -203q6 -11 6 -25v-65z" />
    <glyph glyph-name="l" unicode="l" horiz-adv-x="520" 
d="M470 45q0 -19 -13 -32t-31 -13h-352q-18 0 -31 13t-13 32v590q0 19 13 32t31 13h52q18 0 31 -13t13 -32v-475q0 -16 16 -16h240q18 0 31 -13t13 -32v-54z" />
    <glyph glyph-name="m" unicode="m" horiz-adv-x="520" 
d="M470 45q0 -19 -13 -32t-31 -13h-52q-18 0 -31 13t-13 32v293l-22 -39q-17 -30 -58 -30t-58 30l-22 39v-293q0 -19 -13 -32t-31 -13h-52q-18 0 -31 13t-13 32v590q0 19 13 32t31 13h26q29 0 51 -22l99 -175l99 175q22 22 51 22h26q18 0 31 -13t13 -32v-590z" />
    <glyph glyph-name="n" unicode="n" horiz-adv-x="520" 
d="M470 45q0 -19 -13 -32t-31 -13h-26q-29 0 -51 22l-179 316v-293q0 -19 -13 -32t-31 -13h-52q-18 0 -31 13t-13 32v590q0 19 13 32t31 13h26q29 0 51 -22l179 -317v294q0 19 13 32t31 13h52q18 0 31 -13t13 -32v-590z" />
    <glyph glyph-name="o" unicode="o" horiz-adv-x="520" 
d="M470 156q0 -30 -21 -51l-82 -84q-21 -21 -50 -21h-134q-29 0 -50 21l-82 84q-21 21 -21 51v368q0 30 21 51l82 84q21 21 50 21h134q29 0 50 -21l82 -84q21 -21 21 -51v-368zM330 204v272q0 19 -20 39.5t-39 20.5h-42q-19 0 -39 -20.5t-20 -39.5v-272q0 -19 20 -39.5
t39 -20.5h42q19 0 39 20.5t20 39.5z" />
    <glyph glyph-name="p" unicode="p" horiz-adv-x="520" 
d="M470 424q0 -29 -21 -50l-82 -85q-21 -21 -50 -21h-131q-16 0 -16 -16v-207q0 -19 -13 -32t-31 -13h-52q-18 0 -31 13t-13 32v590q0 19 13 32t31 13h243q29 0 50 -21l82 -84q21 -21 21 -51v-100zM330 472v4q0 19 -20 39.5t-39 20.5h-85q-16 0 -16 -16v-92q0 -16 16 -16h85
q19 0 39 20.5t20 39.5z" />
    <glyph glyph-name="q" unicode="q" horiz-adv-x="521" 
d="M470 156q0 -32 -13 -45q16 -16 16 -32q0 -18 -46 -65q-14 -14 -31 -14q-20 0 -35 15q-15 -15 -44 -15h-134q-29 0 -50 21l-82 84q-21 21 -21 51v368q0 30 21 51l82 84q21 21 50 21h134q29 0 50 -21l82 -84q21 -21 21 -51v-368zM330 241v235q0 19 -20 39.5t-39 20.5h-42
q-19 0 -39 -20.5t-20 -39.5v-272q0 -19 20 -39.5t39 -20.5h5q-17 18 -17 35q0 21 43 65q14 14 32 14q21 0 38 -17z" />
    <glyph glyph-name="r" unicode="r" horiz-adv-x="520" 
d="M470 45q0 -19 -13 -32t-31 -13h-52q-18 0 -31 13t-13 32v163q0 19 -20 39.5t-39 20.5h-85q-16 0 -16 -16v-207q0 -19 -13 -32t-31 -13h-52q-18 0 -31 13t-13 32v590q0 19 13 32t31 13h243q29 0 50 -21l82 -84q21 -21 21 -51v-100q0 -25 -17 -47q-2 -2 -36 -37
q34 -35 36 -37q17 -22 17 -47v-211zM330 472v4q0 19 -20 39.5t-39 20.5h-85q-16 0 -16 -16v-92q0 -16 16 -16h85q19 0 39 20.5t20 39.5z" />
    <glyph glyph-name="s" unicode="s" horiz-adv-x="520" 
d="M470 156q0 -30 -21 -51l-82 -84q-21 -21 -50 -21h-134q-29 0 -50 21l-82 84q-21 21 -21 51v48q0 19 13 32t31 13h52q18 0 31 -13t13 -32t20 -39.5t39 -20.5h42q19 0 39 20.5t20 39.5v4q0 19 -20 39.5t-39 20.5h-88q-29 0 -50 21l-82 85q-21 21 -21 50v100q0 30 21 51
l82 84q21 21 50 21h134q29 0 50 -21l82 -84q21 -21 21 -51v-48q0 -19 -13 -32t-31 -13h-52q-18 0 -31 13t-13 32t-20 39.5t-39 20.5h-42q-19 0 -39 -20.5t-20 -39.5v-4q0 -19 20 -39.5t39 -20.5h88q29 0 50 -21l82 -85q21 -21 21 -50v-100z" />
    <glyph glyph-name="t" unicode="t" horiz-adv-x="520" 
d="M470 581q0 -19 -13 -32t-31 -13h-90q-16 0 -16 -16v-475q0 -19 -13 -32t-31 -13h-52q-18 0 -31 13t-13 32v475q0 16 -16 16h-90q-18 0 -31 13t-13 32v54q0 19 13 32t31 13h352q18 0 31 -13t13 -32v-54z" />
    <glyph glyph-name="u" unicode="u" horiz-adv-x="520" 
d="M470 156q0 -30 -21 -51l-82 -84q-21 -21 -50 -21h-134q-29 0 -50 21l-82 84q-21 21 -21 51v479q0 19 13 32t31 13h52q18 0 31 -13t13 -32v-431q0 -19 20 -39.5t39 -20.5h42q19 0 39 20.5t20 39.5v431q0 19 13 32t31 13h52q18 0 31 -13t13 -32v-479z" />
    <glyph glyph-name="v" unicode="v" horiz-adv-x="520" 
d="M470 339q0 -19 -9 -35l-153 -274q-21 -30 -58 -30t-58 30l-153 274q-9 16 -9 35v296q0 19 13 32t31 13h52q18 0 31 -13t13 -32v-268q0 -12 5 -21l75 -132l75 132q5 9 5 21v268q0 19 13 32t31 13h52q18 0 31 -13t13 -32v-296z" />
    <glyph glyph-name="w" unicode="w" horiz-adv-x="520" 
d="M470 45q0 -19 -13 -32t-31 -13h-26q-29 0 -51 22l-99 175l-99 -175q-22 -22 -51 -22h-26q-18 0 -31 13t-13 32v590q0 19 13 32t31 13h52q18 0 31 -13t13 -32v-293l22 39q17 30 58 30t58 -30l22 -39v293q0 19 13 32t31 13h52q18 0 31 -13t13 -32v-590z" />
    <glyph glyph-name="x" unicode="x" horiz-adv-x="520" 
d="M470 45q0 -19 -13 -32t-31 -13h-52q-18 0 -30.5 12.5t-13.5 30.5l-2 7q-8 39 -34 93q-22 44 -44 89q-22 -45 -44 -89q-26 -54 -34 -93l-2 -7q-1 -18 -13.5 -30.5t-30.5 -12.5h-52q-18 0 -31 13t-13 32v28q0 13 6 23l110 242q1 2 0 4l-110 242q-6 13 -6 23v28q0 19 13 32
t31 13h52q34 0 44 -41.5t22 -64.5q34 -70 58 -126q24 55 58 126q12 23 22 64.5t44 41.5h52q18 0 31 -13t13 -32v-28q0 -10 -6 -23l-110 -242q-1 -2 0 -4l110 -242q6 -10 6 -24v-27z" />
    <glyph glyph-name="y" unicode="y" horiz-adv-x="520" 
d="M470 457q0 -30 -21 -51l-129 -132v-4v-225q0 -19 -13 -32t-31 -13h-52q-18 0 -31 13t-13 32v225v4l-129 132q-21 21 -21 51v178q0 19 13 32t31 13h52q18 0 31 -13t13 -32v-130q0 -21 31 -53q20 -18 39 -36q3 -4 10 -4t10 4q19 18 39 36q31 32 31 53v130q0 19 13 32t31 13
h52q18 0 31 -13t13 -32v-178z" />
    <glyph glyph-name="z" unicode="z" horiz-adv-x="520" 
d="M470 45q0 -19 -13 -32t-31 -13h-326q-29 0 -49.5 21t-20.5 51q0 19 9 35l241 429h-206q-18 0 -31 13t-13 32v54q0 19 13 32t31 13h326q29 0 49.5 -21t20.5 -51q0 -19 -9 -35l-241 -429h206q18 0 31 -13t13 -32v-54z" />
    <glyph glyph-name="braceleft" unicode="{" horiz-adv-x="470" 
d="M417 -110q0 -17 -11.5 -28.5t-28.5 -11.5h-62q-31 0 -53 22l-110 110q-22 22 -22 53v260q0 44 -29 86q-32 44 -71 44q39 0 71 44q29 42 29 86v260q0 31 22 53l110 110q22 22 53 22h62q17 0 28.5 -11.5t11.5 -28.5v-70q0 -17 -11.5 -28.5t-28.5 -11.5q-31 0 -53 -22
l-22 -22q-22 -22 -22 -53v-233q0 -41 -17 -68t-43 -27q26 0 43 -27t17 -68v-233q0 -31 22 -53l22 -22q22 -22 53 -22q17 0 28.5 -11.5t11.5 -28.5v-70z" />
    <glyph glyph-name="bar" unicode="|" horiz-adv-x="230" 
d="M180 0q0 -17 -11.5 -28.5t-28.5 -11.5h-70q-17 0 -28.5 11.5t-11.5 28.5v850q0 17 11.5 28.5t28.5 11.5h70q17 0 28.5 -11.5t11.5 -28.5v-850z" />
    <glyph glyph-name="braceright" unicode="}" horiz-adv-x="470" 
d="M417 425q-39 0 -69.5 -43t-30.5 -87v-260q0 -31 -22 -53l-110 -110q-22 -22 -53 -22h-62q-17 0 -28.5 11.5t-11.5 28.5v70q0 17 11.5 28.5t28.5 11.5q31 0 53 22l22 22q22 22 22 53v233q0 41 17 68t43 27q-26 0 -43 27t-17 68v233q0 31 -22 53l-22 22q-22 22 -53 22
q-17 0 -28.5 11.5t-11.5 28.5v70q0 17 11.5 28.5t28.5 11.5h62q31 0 53 -22l110 -110q22 -22 22 -53v-260q0 -44 30.5 -87t69.5 -43z" />
    <glyph glyph-name="asciitilde" unicode="~" 
d="M568 504q-35 -36 -87 -56q-24 -9 -49 -9q-36 0 -65 8q-45 17 -136 50q-11 4 -26 4q-37 0 -57 -24q-12 -12 -29 -12q-16 0 -28 12l-49 49q-12 12 -12 28q0 17 12 29q60 67 148 67q33 0 64 -9q19 -5 130 -46q15 -5 30 -5q28 0 48 20q12 12 28 12q17 0 29 -12l49 -49
q12 -12 12 -29q0 -16 -12 -28z" />
    <glyph glyph-name="nonbreakingspace" unicode="&#xa0;" horiz-adv-x="500" 
 />
    <glyph glyph-name="exclamdown" unicode="&#xa1;" horiz-adv-x="230" 
d="M180 775q0 -31 -22 -53t-53 -22t-53 22t-22 53t22 53t53 22t53 -22t22 -53zM180 40q0 -17 -11.5 -28.5t-28.5 -11.5h-70q-17 0 -28.5 11.5t-11.5 28.5v520q0 17 11.5 28.5t28.5 11.5h70q17 0 28.5 -11.5t11.5 -28.5v-520z" />
    <glyph glyph-name="cent" unicode="&#xa2;" horiz-adv-x="520" 
d="M470 255q0 -30 -21 -51l-82 -84q-21 -21 -50 -21v-55q0 -18 -13 -31t-32 -13h-44q-19 0 -32 13t-13 31v55q-29 0 -50 21l-82 84q-21 21 -21 51v340q0 30 21 51l82 84q21 21 50 21v55q0 18 13 31t32 13h44q19 0 32 -13t13 -31v-55q29 0 50 -21l82 -84q21 -21 21 -51v-48
q0 -19 -13 -32t-31 -13h-52q-18 0 -31 13t-13 32t-20 39.5t-39 20.5h-42q-19 0 -39 -20.5t-20 -39.5v-244q0 -19 20 -39.5t39 -20.5h42q19 0 39 20.5t20 39.5t13 32t31 13h52q18 0 31 -13t13 -32v-48z" />
    <glyph glyph-name="sterling" unicode="&#xa3;" horiz-adv-x="710" 
d="M660 603q0 -17 -11.5 -28.5t-28.5 -11.5h-70q-17 0 -28.5 11.5t-11.5 28.5q0 31 -22 53l-22 22q-22 22 -53 22h-56q-31 0 -53 -22l-22 -22q-22 -22 -22 -53v-63q0 -17 11.5 -28.5t28.5 -11.5h100q17 0 28.5 -11.5t11.5 -28.5v-70q0 -17 -11.5 -28.5t-28.5 -11.5h-100
q-17 0 -28.5 -11.5t-11.5 -28.5v-120q0 -17 11.5 -28.5t28.5 -11.5h100q17 0 28.5 -11.5t11.5 -28.5v-70q0 -17 -11.5 -28.5t-28.5 -11.5h-330q-17 0 -28.5 11.5t-11.5 28.5v70q0 30 40 40t40 40v120q0 30 -40 40t-40 40v70q0 30 40 40t40 40v125q0 31 22 53l110 110
q22 22 53 22h180q31 0 53 -22l110 -110q22 -22 22 -53v-62z" />
    <glyph glyph-name="currency" unicode="&#xa4;" horiz-adv-x="438" 
d="M378 180l-9 -9q-10 -10 -25 -10t-32 10l-103 63l-103 -63q-17 -10 -32 -10t-25 10l-9 9q-10 10 -10 25t10 32l63 103l-63 103q-10 17 -10 32t10 25l9 9q10 10 25 10t32 -10l103 -63l103 63q17 10 32 10t25 -10l9 -9q10 -10 10 -25t-10 -32l-63 -103l63 -103
q10 -17 10 -32t-10 -25zM273 340q0 26 -19 45t-45 19t-45 -19t-19 -45t19 -45t45 -19t45 19t19 45z" />
    <glyph glyph-name="yen" unicode="&#xa5;" 
d="M580 625q0 -31 -22 -53l-175 -175q-3 -3 -3 -17h60q17 0 28.5 -11.5t11.5 -28.5v-70q0 -17 -11.5 -28.5t-28.5 -11.5h-60v-40h60q17 0 28.5 -11.5t11.5 -28.5v-70q0 -17 -11.5 -28.5t-28.5 -11.5h-60q0 -17 -11.5 -28.5t-28.5 -11.5h-70q-17 0 -28.5 11.5t-11.5 28.5h-60
q-17 0 -28.5 11.5t-11.5 28.5v70q0 17 11.5 28.5t28.5 11.5h60v40h-60q-17 0 -28.5 11.5t-11.5 28.5v70q0 17 11.5 28.5t28.5 11.5h60q0 14 -3 17l-175 175q-22 22 -22 53v185q0 17 11.5 28.5t28.5 11.5h70q17 0 28.5 -11.5t11.5 -28.5v-123q0 -31 22 -53l75 -75
q8 -12 28 -12t28 12l75 75q22 22 22 53v123q0 17 11.5 28.5t28.5 11.5h70q17 0 28.5 -11.5t11.5 -28.5v-185z" />
    <glyph glyph-name="brokenbar" unicode="&#xa6;" horiz-adv-x="230" 
d="M180 500q0 -17 -11.5 -28.5t-28.5 -11.5h-70q-17 0 -28.5 11.5t-11.5 28.5v350q0 17 11.5 28.5t28.5 11.5h70q17 0 28.5 -11.5t11.5 -28.5v-350zM180 0q0 -17 -11.5 -28.5t-28.5 -11.5h-70q-17 0 -28.5 11.5t-11.5 28.5v350q0 17 11.5 28.5t28.5 11.5h70q17 0 28.5 -11.5
t11.5 -28.5v-350z" />
    <glyph glyph-name="section" unicode="&#xa7;" horiz-adv-x="520" 
d="M470 140q0 -100 -59 -159q-55 -55 -142 -55h-38q-83 0 -142 60.5t-59 145.5q0 19 13 32t31 13h52q18 0 31 -13t13 -32q0 -26 18 -44t43 -18h38q27 0 44 15t17 39q0 17 -40 41l-162 86q-98 62 -98 141q0 111 71 170q-71 55 -71 124q0 101 59 159q55 55 142 55h38
q83 0 142 -60.5t59 -145.5q0 -19 -13 -32t-31 -13h-52q-18 0 -31 13t-13 32q0 26 -18 44t-43 18h-38q-27 0 -44 -15t-17 -39q0 -17 40 -41l162 -86q98 -62 98 -141q0 -112 -73 -170q73 -55 73 -124zM330 413q0 49 -61 49h-38q-61 0 -61 -49t61 -49h38q61 0 61 49z" />
    <glyph glyph-name="dieresis" unicode="&#xa8;" horiz-adv-x="340" 
d="M290 860q0 -17 -11.5 -28.5t-28.5 -11.5t-28.5 11.5t-11.5 28.5t11.5 28.5t28.5 11.5t28.5 -11.5t11.5 -28.5zM110 860q0 -17 -11.5 -28.5t-28.5 -11.5t-28.5 11.5t-11.5 28.5t11.5 28.5t28.5 11.5t28.5 -11.5t11.5 -28.5z" />
    <glyph glyph-name="copyright" unicode="&#xa9;" horiz-adv-x="680" 
d="M630 550q0 -124 -88 -212t-212 -88t-212 88t-88 212t88 212t212 88t212 -88t88 -212zM550 550q0 91 -64.5 155.5t-155.5 64.5t-155.5 -64.5t-64.5 -155.5t64.5 -155.5t155.5 -64.5t155.5 64.5t64.5 155.5zM471 490q0 -55 -38 -93.5t-91 -38.5h-24q-53 0 -91 38.5
t-38 93.5v120q0 55 38 93.5t91 38.5h24q53 0 91 -38.5t38 -93.5q0 -29 -28 -29h-34q-28 0 -28 29q0 17 -11.5 28.5t-27.5 11.5h-24q-16 0 -27.5 -11.5t-11.5 -28.5v-120q0 -17 11.5 -28.5t27.5 -11.5h24q16 0 27.5 11.5t11.5 28.5q0 29 28 29h34q28 0 28 -29z" />
    <glyph glyph-name="ordfeminine" unicode="&#xaa;" horiz-adv-x="800" 
d="M725 534q0 -10 -31 -12q-18 -1 -43 -1q21 -22 41 -45q0 -9 -8 -9q-12 0 -41 42q9 -63 9 -57q0 -10 -11 -10q-13 0 -13 47q0 13 1 31h-46q-6 0 -6 6q0 4 49 10q-35 41 -35 67q0 10 11 10q8 0 10 -9q7 -27 20 -53q1 14 8 32q9 23 18 23q11 0 11 -10q0 -4 -10 -14.5
t-11.5 -14t-5.5 -29.5q51 7 72 7q11 0 11 -11zM739 242q-2 -2 -29 -8t-32 -6q-7 0 -6 30q-35 -27 -67 -27q-20 0 -36 13t-16 33q0 31 31 47q26 9 53 18q35 16 35 35q0 24 -28 24q-14 0 -35.5 -21.5t-28.5 -21.5q-16 0 -16 18q0 20 33 33q27 11 51 11q64 0 64 -79v-23
q-1 -31 -1 -23q0 -30 9 -36q7 -1 19 -12v-5zM495 410l-1 -5q-1 -1 -29.5 -7t-32.5 -6q-7 0 -6 29q-35 -27 -66 -27q-20 0 -36.5 13.5t-16.5 33.5q0 31 31 47q26 9 53 18q35 15 35 34q0 24 -28 24q-14 0 -35 -21t-29 -21q-16 0 -16 18q0 20 33 33q27 11 51 11q64 0 64 -79
v-23q-1 -31 -1 -23q0 -30 9 -36q9 -2 21 -13zM572 210q-4 -11 -67 -20q-9 4 -8 26q-30 -22 -61 -22q-33 0 -55 30q-20 27 -20 62q0 39 26.5 68t65.5 29q24 0 45 -12v81q0 7 -4 13l-13 1l-7 7q6 19 78 47l8 -8q-20 -26 -20 -38v-231q0 -16 15 -21t17 -12zM335 504
q0 -6 -16.5 -11t-16.5 -23v-222q0 -7 -4 -13q-6 -2 -12 -2q-18 0 -20 10q-31 144 -119 197v-163q0 -16 16.5 -22t16.5 -12q0 -8 -17 -10q-12 -2 -32 -1l-22 1q-26 0 -26 10q0 6 16 12t16 22v186q-9 8 -16 8t-17 -10t-13 -12l-8 7q7 31 12 40q10 24 30 24q46 0 97 -50
q39 -38 70 -91l1 61q1 45 -10 51q-2 0 -12.5 2.5t-10.5 10.5q0 10 27 10q70 0 70 -10zM672 338q-1 -1 -46 -21q-30 -13 -30 -33q0 -26 30 -26q46 0 46 80zM426 501q-2 -2 -45 -21q-30 -13 -30 -33q0 -26 29 -26q46 0 46 80zM498 278v70q-23 15 -43 15q-25 0 -39.5 -20.5
t-14.5 -47.5q0 -28 14 -49q16 -24 42 -24q41 0 41 56z" />
    <glyph glyph-name="guillemotleft" unicode="&#xab;" horiz-adv-x="580" 
d="M490 61q-16 0 -28 12l-218 216q-23 23 -23 51t23 51l218 216q12 12 28 12t28 -12t12 -28t-12 -28l-180 -180q-11 -11 -13 -31q2 -20 13 -31l180 -180q12 -12 12 -28t-12 -28t-28 -12zM299 61q-16 0 -28 12l-218 216q-23 23 -23 51t23 51l218 216q12 12 28 12t28 -12
t12 -28t-12 -28l-180 -180q-11 -11 -13 -31q2 -20 13 -31l180 -180q12 -12 12 -28t-12 -28t-28 -12z" />
    <glyph glyph-name="logicalnot" unicode="&#xac;" horiz-adv-x="520" 
d="M470 205q0 -17 -11.5 -28.5t-28.5 -11.5h-70q-17 0 -28.5 11.5t-11.5 28.5v60h-250q-17 0 -28.5 11.5t-11.5 28.5v70q0 17 11.5 28.5t28.5 11.5h361q16 0 27.5 -11.5t11.5 -28.5v-170z" />
    <glyph glyph-name="minus" unicode="&#xad;" horiz-adv-x="520" 
d="M470 305q0 -17 -11.5 -28.5t-28.5 -11.5h-360q-17 0 -28.5 11.5t-11.5 28.5v70q0 17 11.5 28.5t28.5 11.5h360q17 0 28.5 -11.5t11.5 -28.5v-70z" />
    <glyph glyph-name="minus" unicode="&#x2212;" horiz-adv-x="520" 
d="M470 305q0 -17 -11.5 -28.5t-28.5 -11.5h-360q-17 0 -28.5 11.5t-11.5 28.5v70q0 17 11.5 28.5t28.5 11.5h360q17 0 28.5 -11.5t11.5 -28.5v-70z" />
    <glyph glyph-name="registered" unicode="&#xae;" horiz-adv-x="680" 
d="M630 550q0 -124 -88 -212t-212 -88t-212 88t-88 212t88 212t212 88t212 -88t88 -212zM550 550q0 91 -64.5 155.5t-155.5 64.5t-155.5 -64.5t-64.5 -155.5t64.5 -155.5t155.5 -64.5t155.5 64.5t64.5 155.5zM442 399q0 -23 -22 -23h-27q-22 0 -22 23v82q0 13 -9.5 22.5
t-22.5 9.5h-42q-8 0 -8 -8v-106q0 -23 -23 -23h-26q-23 0 -23 23v302q0 23 23 23h99q43 0 73 -31t30 -75q0 -39 -24 -68q24 -29 24 -69v-82zM371 618q0 13 -9.5 22.5t-22.5 9.5h-42q-8 0 -8 -8v-47q0 -9 8 -9h42q13 0 22.5 9.5t9.5 22.5z" />
    <glyph glyph-name="macron" unicode="&#xaf;" horiz-adv-x="800" 
d="M725 534q0 -10 -31 -12q-18 -1 -43 -1q21 -22 41 -45q0 -9 -8 -9q-12 0 -41 42q9 -63 9 -57q0 -10 -11 -10q-13 0 -13 47q0 13 1 31h-46q-6 0 -6 6q0 4 49 10q-35 41 -35 67q0 10 11 10q8 0 10 -9q7 -27 20 -53q1 14 8 32q9 23 18 23q11 0 11 -10q0 -4 -10 -14.5
t-11.5 -14t-5.5 -29.5q51 7 72 7q11 0 11 -11zM739 242q-2 -2 -29 -8t-32 -6q-7 0 -6 30q-35 -27 -67 -27q-20 0 -36 13t-16 33q0 31 31 47q26 9 53 18q35 16 35 35q0 24 -28 24q-14 0 -35.5 -21.5t-28.5 -21.5q-16 0 -16 18q0 20 33 33q27 11 51 11q64 0 64 -79v-23
q-1 -31 -1 -23q0 -30 9 -36q7 -1 19 -12v-5zM495 410l-1 -5q-1 -1 -29.5 -7t-32.5 -6q-7 0 -6 29q-35 -27 -66 -27q-20 0 -36.5 13.5t-16.5 33.5q0 31 31 47q26 9 53 18q35 15 35 34q0 24 -28 24q-14 0 -35 -21t-29 -21q-16 0 -16 18q0 20 33 33q27 11 51 11q64 0 64 -79
v-23q-1 -31 -1 -23q0 -30 9 -36q9 -2 21 -13zM572 210q-4 -11 -67 -20q-9 4 -8 26q-30 -22 -61 -22q-33 0 -55 30q-20 27 -20 62q0 39 26.5 68t65.5 29q24 0 45 -12v81q0 7 -4 13l-13 1l-7 7q6 19 78 47l8 -8q-20 -26 -20 -38v-231q0 -16 15 -21t17 -12zM335 504
q0 -6 -16.5 -11t-16.5 -23v-222q0 -7 -4 -13q-6 -2 -12 -2q-18 0 -20 10q-31 144 -119 197v-163q0 -16 16.5 -22t16.5 -12q0 -8 -17 -10q-12 -2 -32 -1l-22 1q-26 0 -26 10q0 6 16 12t16 22v186q-9 8 -16 8t-17 -10t-13 -12l-8 7q7 31 12 40q10 24 30 24q46 0 97 -50
q39 -38 70 -91l1 61q1 45 -10 51q-2 0 -12.5 2.5t-10.5 10.5q0 10 27 10q70 0 70 -10zM672 338q-1 -1 -46 -21q-30 -13 -30 -33q0 -26 30 -26q46 0 46 80zM426 501q-2 -2 -45 -21q-30 -13 -30 -33q0 -26 29 -26q46 0 46 80zM498 278v70q-23 15 -43 15q-25 0 -39.5 -20.5
t-14.5 -47.5q0 -28 14 -49q16 -24 42 -24q41 0 41 56z" />
    <glyph glyph-name="macron" unicode="&#x2c9;" horiz-adv-x="800" 
d="M725 534q0 -10 -31 -12q-18 -1 -43 -1q21 -22 41 -45q0 -9 -8 -9q-12 0 -41 42q9 -63 9 -57q0 -10 -11 -10q-13 0 -13 47q0 13 1 31h-46q-6 0 -6 6q0 4 49 10q-35 41 -35 67q0 10 11 10q8 0 10 -9q7 -27 20 -53q1 14 8 32q9 23 18 23q11 0 11 -10q0 -4 -10 -14.5
t-11.5 -14t-5.5 -29.5q51 7 72 7q11 0 11 -11zM739 242q-2 -2 -29 -8t-32 -6q-7 0 -6 30q-35 -27 -67 -27q-20 0 -36 13t-16 33q0 31 31 47q26 9 53 18q35 16 35 35q0 24 -28 24q-14 0 -35.5 -21.5t-28.5 -21.5q-16 0 -16 18q0 20 33 33q27 11 51 11q64 0 64 -79v-23
q-1 -31 -1 -23q0 -30 9 -36q7 -1 19 -12v-5zM495 410l-1 -5q-1 -1 -29.5 -7t-32.5 -6q-7 0 -6 29q-35 -27 -66 -27q-20 0 -36.5 13.5t-16.5 33.5q0 31 31 47q26 9 53 18q35 15 35 34q0 24 -28 24q-14 0 -35 -21t-29 -21q-16 0 -16 18q0 20 33 33q27 11 51 11q64 0 64 -79
v-23q-1 -31 -1 -23q0 -30 9 -36q9 -2 21 -13zM572 210q-4 -11 -67 -20q-9 4 -8 26q-30 -22 -61 -22q-33 0 -55 30q-20 27 -20 62q0 39 26.5 68t65.5 29q24 0 45 -12v81q0 7 -4 13l-13 1l-7 7q6 19 78 47l8 -8q-20 -26 -20 -38v-231q0 -16 15 -21t17 -12zM335 504
q0 -6 -16.5 -11t-16.5 -23v-222q0 -7 -4 -13q-6 -2 -12 -2q-18 0 -20 10q-31 144 -119 197v-163q0 -16 16.5 -22t16.5 -12q0 -8 -17 -10q-12 -2 -32 -1l-22 1q-26 0 -26 10q0 6 16 12t16 22v186q-9 8 -16 8t-17 -10t-13 -12l-8 7q7 31 12 40q10 24 30 24q46 0 97 -50
q39 -38 70 -91l1 61q1 45 -10 51q-2 0 -12.5 2.5t-10.5 10.5q0 10 27 10q70 0 70 -10zM672 338q-1 -1 -46 -21q-30 -13 -30 -33q0 -26 30 -26q46 0 46 80zM426 501q-2 -2 -45 -21q-30 -13 -30 -33q0 -26 29 -26q46 0 46 80zM498 278v70q-23 15 -43 15q-25 0 -39.5 -20.5
t-14.5 -47.5q0 -28 14 -49q16 -24 42 -24q41 0 41 56z" />
    <glyph glyph-name="degree" unicode="&#xb0;" horiz-adv-x="260" 
d="M210 810q0 -37 -26.5 -63.5t-63.5 -26.5t-63.5 26.5t-26.5 63.5t26.5 63.5t63.5 26.5t63.5 -26.5t26.5 -63.5zM150 810q0 30 -30 30t-30 -30t30 -30t30 30z" />
    <glyph glyph-name="plusminus" unicode="&#xb1;" 
d="M580 490q0 -17 -11.5 -28.5t-28.5 -11.5h-160v-160q0 -17 -11.5 -28.5t-28.5 -11.5h-70q-17 0 -28.5 11.5t-11.5 28.5v160h-160q-17 0 -28.5 11.5t-11.5 28.5v70q0 17 11.5 28.5t28.5 11.5h160v160q0 17 11.5 28.5t28.5 11.5h70q17 0 28.5 -11.5t11.5 -28.5v-160h160
q17 0 28.5 -11.5t11.5 -28.5v-70zM580 90q0 -17 -11.5 -28.5t-28.5 -11.5h-470q-17 0 -28.5 11.5t-11.5 28.5v70q0 17 11.5 28.5t28.5 11.5h470q17 0 28.5 -11.5t11.5 -28.5v-70z" />
    <glyph glyph-name="twosuperior" unicode="&#xb2;" horiz-adv-x="344" 
d="M272 535q0 -25 -24 -25h-159q-15 0 -26 11t-11 27q0 34 38 79q12 14 71 71q38 37 38 52q0 24 -28 24h-18q-28 0 -28 -28q0 -24 -23 -24h-26q-24 0 -24 24q0 43 29.5 73.5t71.5 30.5h18q43 0 72 -29t29 -79q0 -31 -47 -83q-4 -5 -74 -73h97q24 0 24 -25v-26z" />
    <glyph glyph-name="threesuperior" unicode="&#xb3;" horiz-adv-x="300" 
d="M250 614q0 -43 -29.5 -73.5t-71.5 -30.5h-18q-42 0 -71.5 30.5t-29.5 73.5q0 24 24 24h26q23 0 23 -24q0 -28 28 -28h18q28 0 28 28t-28 28h-18q-24 0 -24 25v26q0 25 24 25h18q28 0 28 28t-28 28h-18q-28 0 -28 -28q0 -24 -23 -24h-26q-24 0 -24 24q0 43 29.5 73.5
t71.5 30.5h18q42 0 71.5 -30.5t29.5 -73.5q0 -37 -23 -66q23 -29 23 -66z" />
    <glyph glyph-name="acute" unicode="&#xb4;" horiz-adv-x="340" 
d="M283 782l-170 -71q-29 -12 -53 -12q-23 0 -23 24q0 26 19 45l121 120q12 12 28 12t28 -12l50 -50q14 -14 14 -33q0 -17 -14 -23z" />
    <glyph glyph-name="mu1" unicode="&#xb5;" 
d="M580 250q0 -64 -30 -119l17 -17q13 -13 13 -31t-13 -31l-39 -39q-13 -13 -31 -13t-31 13l-17 17q-55 -30 -119 -30h-110q-17 0 -28.5 -11.5t-11.5 -28.5v-120q0 -17 -11.5 -28.5t-28.5 -11.5h-70q-17 0 -28.5 11.5t-11.5 28.5v800q0 17 11.5 28.5t28.5 11.5h70
q17 0 28.5 -11.5t11.5 -28.5v-390q0 -41 29.5 -70.5t70.5 -29.5h49q41 0 70.5 29.5t29.5 70.5l1 390q0 17 11.5 28.5t28.5 11.5h70q17 0 28.5 -11.5t11.5 -28.5v-390z" />
    <glyph glyph-name="mu1" unicode="&#x3bc;" 
d="M580 250q0 -64 -30 -119l17 -17q13 -13 13 -31t-13 -31l-39 -39q-13 -13 -31 -13t-31 13l-17 17q-55 -30 -119 -30h-110q-17 0 -28.5 -11.5t-11.5 -28.5v-120q0 -17 -11.5 -28.5t-28.5 -11.5h-70q-17 0 -28.5 11.5t-11.5 28.5v800q0 17 11.5 28.5t28.5 11.5h70
q17 0 28.5 -11.5t11.5 -28.5v-390q0 -41 29.5 -70.5t70.5 -29.5h49q41 0 70.5 29.5t29.5 70.5l1 390q0 17 11.5 28.5t28.5 11.5h70q17 0 28.5 -11.5t11.5 -28.5v-390z" />
    <glyph glyph-name="paragraph" unicode="&#xb6;" horiz-adv-x="1070" 
d="M1020 740q0 -17 -11.5 -28.5t-28.5 -11.5h-50q-17 0 -28.5 -11.5t-11.5 -28.5v-620q0 -17 -11.5 -28.5t-28.5 -11.5h-70q-17 0 -28.5 11.5t-11.5 28.5v620q0 17 -11.5 28.5t-28.5 11.5h-120v-660q0 -17 -11.5 -28.5t-28.5 -11.5h-70q-17 0 -28.5 11.5t-11.5 28.5v270
q0 17 -11.5 28.5t-28.5 11.5h-110q-104 0 -177 73t-73 177t73 177t177 73h700q17 0 28.5 -11.5t11.5 -28.5v-70z" />
    <glyph glyph-name="periodcentered" unicode="&#xb7;" horiz-adv-x="230" 
d="M180 425q0 -31 -22 -53t-53 -22t-53 22t-22 53t22 53t53 22t53 -22t22 -53z" />
    <glyph glyph-name="periodcentered" unicode="&#x2219;" horiz-adv-x="230" 
d="M180 425q0 -31 -22 -53t-53 -22t-53 22t-22 53t22 53t53 22t53 -22t22 -53z" />
    <glyph glyph-name="cedilla" unicode="&#xb8;" horiz-adv-x="800" 
d="M725 534q0 -10 -31 -12q-18 -1 -43 -1q21 -22 41 -45q0 -9 -8 -9q-12 0 -41 42q9 -63 9 -57q0 -10 -11 -10q-13 0 -13 47q0 13 1 31h-46q-6 0 -6 6q0 4 49 10q-35 41 -35 67q0 10 11 10q8 0 10 -9q7 -27 20 -53q1 14 8 32q9 23 18 23q11 0 11 -10q0 -4 -10 -14.5
t-11.5 -14t-5.5 -29.5q51 7 72 7q11 0 11 -11zM739 242q-2 -2 -29 -8t-32 -6q-7 0 -6 30q-35 -27 -67 -27q-20 0 -36 13t-16 33q0 31 31 47q26 9 53 18q35 16 35 35q0 24 -28 24q-14 0 -35.5 -21.5t-28.5 -21.5q-16 0 -16 18q0 20 33 33q27 11 51 11q64 0 64 -79v-23
q-1 -31 -1 -23q0 -30 9 -36q7 -1 19 -12v-5zM495 410l-1 -5q-1 -1 -29.5 -7t-32.5 -6q-7 0 -6 29q-35 -27 -66 -27q-20 0 -36.5 13.5t-16.5 33.5q0 31 31 47q26 9 53 18q35 15 35 34q0 24 -28 24q-14 0 -35 -21t-29 -21q-16 0 -16 18q0 20 33 33q27 11 51 11q64 0 64 -79
v-23q-1 -31 -1 -23q0 -30 9 -36q9 -2 21 -13zM572 210q-4 -11 -67 -20q-9 4 -8 26q-30 -22 -61 -22q-33 0 -55 30q-20 27 -20 62q0 39 26.5 68t65.5 29q24 0 45 -12v81q0 7 -4 13l-13 1l-7 7q6 19 78 47l8 -8q-20 -26 -20 -38v-231q0 -16 15 -21t17 -12zM335 504
q0 -6 -16.5 -11t-16.5 -23v-222q0 -7 -4 -13q-6 -2 -12 -2q-18 0 -20 10q-31 144 -119 197v-163q0 -16 16.5 -22t16.5 -12q0 -8 -17 -10q-12 -2 -32 -1l-22 1q-26 0 -26 10q0 6 16 12t16 22v186q-9 8 -16 8t-17 -10t-13 -12l-8 7q7 31 12 40q10 24 30 24q46 0 97 -50
q39 -38 70 -91l1 61q1 45 -10 51q-2 0 -12.5 2.5t-10.5 10.5q0 10 27 10q70 0 70 -10zM672 338q-1 -1 -46 -21q-30 -13 -30 -33q0 -26 30 -26q46 0 46 80zM426 501q-2 -2 -45 -21q-30 -13 -30 -33q0 -26 29 -26q46 0 46 80zM498 278v70q-23 15 -43 15q-25 0 -39.5 -20.5
t-14.5 -47.5q0 -28 14 -49q16 -24 42 -24q41 0 41 56z" />
    <glyph glyph-name="onesuperior" unicode="&#xb9;" horiz-adv-x="244" 
d="M194 535q0 -25 -23 -25h-118q-23 0 -23 25v26q0 25 23 25h18q5 0 5 5v176h-23q-23 0 -23 24q0 16 30 48q10 11 25 11h39q24 0 24 -25v-234q0 -5 5 -5h18q23 0 23 -25v-26z" />
    <glyph glyph-name="ordmasculine" unicode="&#xba;" horiz-adv-x="800" 
d="M725 534q0 -10 -31 -12q-18 -1 -43 -1q21 -22 41 -45q0 -9 -8 -9q-12 0 -41 42q9 -63 9 -57q0 -10 -11 -10q-13 0 -13 47q0 13 1 31h-46q-6 0 -6 6q0 4 49 10q-35 41 -35 67q0 10 11 10q8 0 10 -9q7 -27 20 -53q1 14 8 32q9 23 18 23q11 0 11 -10q0 -4 -10 -14.5
t-11.5 -14t-5.5 -29.5q51 7 72 7q11 0 11 -11zM739 242q-2 -2 -29 -8t-32 -6q-7 0 -6 30q-35 -27 -67 -27q-20 0 -36 13t-16 33q0 31 31 47q26 9 53 18q35 16 35 35q0 24 -28 24q-14 0 -35.5 -21.5t-28.5 -21.5q-16 0 -16 18q0 20 33 33q27 11 51 11q64 0 64 -79v-23
q-1 -31 -1 -23q0 -30 9 -36q7 -1 19 -12v-5zM495 410l-1 -5q-1 -1 -29.5 -7t-32.5 -6q-7 0 -6 29q-35 -27 -66 -27q-20 0 -36.5 13.5t-16.5 33.5q0 31 31 47q26 9 53 18q35 15 35 34q0 24 -28 24q-14 0 -35 -21t-29 -21q-16 0 -16 18q0 20 33 33q27 11 51 11q64 0 64 -79
v-23q-1 -31 -1 -23q0 -30 9 -36q9 -2 21 -13zM572 210q-4 -11 -67 -20q-9 4 -8 26q-30 -22 -61 -22q-33 0 -55 30q-20 27 -20 62q0 39 26.5 68t65.5 29q24 0 45 -12v81q0 7 -4 13l-13 1l-7 7q6 19 78 47l8 -8q-20 -26 -20 -38v-231q0 -16 15 -21t17 -12zM335 504
q0 -6 -16.5 -11t-16.5 -23v-222q0 -7 -4 -13q-6 -2 -12 -2q-18 0 -20 10q-31 144 -119 197v-163q0 -16 16.5 -22t16.5 -12q0 -8 -17 -10q-12 -2 -32 -1l-22 1q-26 0 -26 10q0 6 16 12t16 22v186q-9 8 -16 8t-17 -10t-13 -12l-8 7q7 31 12 40q10 24 30 24q46 0 97 -50
q39 -38 70 -91l1 61q1 45 -10 51q-2 0 -12.5 2.5t-10.5 10.5q0 10 27 10q70 0 70 -10zM672 338q-1 -1 -46 -21q-30 -13 -30 -33q0 -26 30 -26q46 0 46 80zM426 501q-2 -2 -45 -21q-30 -13 -30 -33q0 -26 29 -26q46 0 46 80zM498 278v70q-23 15 -43 15q-25 0 -39.5 -20.5
t-14.5 -47.5q0 -28 14 -49q16 -24 42 -24q41 0 41 56z" />
    <glyph glyph-name="guillemotright" unicode="&#xbb;" horiz-adv-x="568" 
d="M518 340q0 -28 -23 -51l-218 -216q-12 -12 -28 -12t-28 12t-12 28t12 28l180 180q11 11 13 31q-2 20 -13 31l-180 180q-12 12 -12 28t12 28t28 12t28 -12l218 -216q23 -23 23 -51zM327 340q0 -28 -23 -51l-218 -216q-12 -12 -28 -12t-28 12t-12 28t12 28l180 180
q11 11 13 31q-2 20 -13 31l-180 180q-12 12 -12 28t12 28t28 12t28 -12l218 -216q23 -23 23 -51z" />
    <glyph glyph-name="onequarter" unicode="&#xbc;" horiz-adv-x="344" 
d="M244 535q0 -25 -23 -25h-118q-23 0 -23 25v26q0 25 23 25h18q5 0 5 5v176h-23q-23 0 -23 24q0 16 30 48q10 11 25 11h39q24 0 24 -25v-234q0 -5 5 -5h18q23 0 23 -25v-26zM294 420q0 -17 -11.5 -28.5t-28.5 -11.5h-184q-17 0 -28.5 11.5t-11.5 28.5t11.5 28.5t28.5 11.5
h184q17 0 28.5 -11.5t11.5 -28.5zM267 25q0 -25 -24 -25h-26q-23 0 -23 25v88q0 5 -6 5h-104q-16 0 -26.5 11.5t-10.5 26.5q0 16 11 27l146 146q11 11 26 11q14 0 25.5 -10.5t11.5 -27.5v-277zM194 194v27l-22 -27h22z" />
    <glyph glyph-name="onehalf" unicode="&#xbd;" horiz-adv-x="344" 
d="M244 535q0 -25 -23 -25h-118q-23 0 -23 25v26q0 25 23 25h18q5 0 5 5v176h-23q-23 0 -23 24q0 16 30 48q10 11 25 11h39q24 0 24 -25v-234q0 -5 5 -5h18q23 0 23 -25v-26zM294 420q0 -17 -11.5 -28.5t-28.5 -11.5h-184q-17 0 -28.5 11.5t-11.5 28.5t11.5 28.5t28.5 11.5
h184q17 0 28.5 -11.5t11.5 -28.5zM272 25q0 -25 -24 -25h-159q-15 0 -26 11t-11 27q0 34 38 79q12 14 71 71q38 37 38 52q0 24 -28 24h-18q-28 0 -28 -28q0 -24 -23 -24h-26q-24 0 -24 24q0 43 29.5 73.5t71.5 30.5h18q43 0 72 -29t29 -79q0 -31 -47 -83q-4 -5 -74 -73h97
q24 0 24 -25v-26z" />
    <glyph glyph-name="threequarters" unicode="&#xbe;" horiz-adv-x="344" 
d="M272 614q0 -43 -29.5 -73.5t-71.5 -30.5h-18q-42 0 -71.5 30.5t-29.5 73.5q0 24 24 24h26q23 0 23 -24q0 -28 28 -28h18q28 0 28 28t-28 28h-18q-24 0 -24 25v26q0 25 24 25h18q28 0 28 28t-28 28h-18q-28 0 -28 -28q0 -24 -23 -24h-26q-24 0 -24 24q0 43 29.5 73.5
t71.5 30.5h18q42 0 71.5 -30.5t29.5 -73.5q0 -37 -23 -66q23 -29 23 -66zM294 420q0 -17 -11.5 -28.5t-28.5 -11.5h-184q-17 0 -28.5 11.5t-11.5 28.5t11.5 28.5t28.5 11.5h184q17 0 28.5 -11.5t11.5 -28.5zM267 25q0 -25 -24 -25h-26q-23 0 -23 25v88q0 5 -6 5h-104
q-16 0 -26.5 11.5t-10.5 26.5q0 16 11 27l146 146q11 11 26 11q14 0 25.5 -10.5t11.5 -27.5v-277zM194 194v27l-22 -27h22z" />
    <glyph glyph-name="questiondown" unicode="&#xbf;" 
d="M480 775q0 -31 -22 -53t-53 -22t-53 22t-22 53t22 53t53 22t53 -22t22 -53zM580 185q0 -31 -22 -53l-110 -110q-22 -22 -53 -22h-180q-31 0 -53 22l-110 110q-22 22 -22 53v130q0 31 22 53l110 110q22 22 53 22h18q31 0 53 22l22 22q22 22 22 53q0 17 11.5 28.5
t28.5 11.5h70q17 0 28.5 -11.5t11.5 -28.5v-62q0 -31 -22 -53l-110 -110q-22 -22 -53 -22h-18q-31 0 -53 -22l-22 -22q-22 -22 -22 -53v-6q0 -31 22 -53l22 -22q22 -22 53 -22h56q31 0 53 22l22 22q22 22 22 53q0 17 12 28.5t28 11.5h70q17 0 28.5 -11.5t11.5 -28.5v-62z
" />
    <glyph glyph-name="Agrave" unicode="&#xc0;" 
d="M333 888q-24 0 -53 12l-170 71q-14 6 -14 23q0 19 14 33l50 50q12 12 28 12t28 -12l121 -120q19 -19 19 -45q0 -24 -23 -24zM580 40q0 -17 -11.5 -28.5t-28.5 -11.5h-70q-17 0 -28.5 11.5t-11.5 28.5l-1 170q0 17 -11.5 28.5t-28.5 11.5h-169q-17 0 -28.5 -11.5
t-11.5 -28.5v-170q0 -17 -11.5 -28.5t-28.5 -11.5h-70q-17 0 -28.5 11.5t-11.5 28.5v560q0 31 22 53l175 175q22 22 53 22h50q31 0 53 -22l175 -175q22 -22 22 -53v-560zM430 440v98q0 31 -22 53l-75 75q-8 12 -28 12t-28 -12l-75 -75q-22 -22 -22 -53v-98q0 -17 11.5 -28.5
t28.5 -11.5h169q17 0 29 12t12 28z" />
    <glyph glyph-name="Aacute" unicode="&#xc1;" 
d="M500 971l-170 -71q-29 -12 -53 -12q-23 0 -23 24q0 26 19 45l121 120q12 12 28 12t28 -12l50 -50q14 -14 14 -33q0 -17 -14 -23zM580 40q0 -17 -11.5 -28.5t-28.5 -11.5h-70q-17 0 -28.5 11.5t-11.5 28.5l-1 170q0 17 -11.5 28.5t-28.5 11.5h-169q-17 0 -28.5 -11.5
t-11.5 -28.5v-170q0 -17 -11.5 -28.5t-28.5 -11.5h-70q-17 0 -28.5 11.5t-11.5 28.5v560q0 31 22 53l175 175q22 22 53 22h50q31 0 53 -22l175 -175q22 -22 22 -53v-560zM430 440v98q0 31 -22 53l-75 75q-8 12 -28 12t-28 -12l-75 -75q-22 -22 -22 -53v-98q0 -17 11.5 -28.5
t28.5 -11.5h169q17 0 29 12t12 28z" />
    <glyph glyph-name="Acircumflex" unicode="&#xc2;" 
d="M466 892q1 -6 -11 -6q-24 0 -58 14l-92 38l-92 -38q-34 -14 -58 -14q-12 0 -11 6q-10 -1 -10 13q0 34 22 52l121 100q19 16 28 12q9 4 28 -12l121 -100q22 -18 22 -52q0 -14 -10 -13zM580 40q0 -17 -11.5 -28.5t-28.5 -11.5h-70q-17 0 -28.5 11.5t-11.5 28.5l-1 170
q0 17 -11.5 28.5t-28.5 11.5h-169q-17 0 -28.5 -11.5t-11.5 -28.5v-170q0 -17 -11.5 -28.5t-28.5 -11.5h-70q-17 0 -28.5 11.5t-11.5 28.5v560q0 31 22 53l175 175q22 22 53 22h50q31 0 53 -22l175 -175q22 -22 22 -53v-560zM430 440v98q0 31 -22 53l-75 75q-8 12 -28 12
t-28 -12l-75 -75q-22 -22 -22 -53v-98q0 -17 11.5 -28.5t28.5 -11.5h169q17 0 29 12t12 28z" />
    <glyph glyph-name="Atilde" unicode="&#xc3;" 
d="M515 952q-29 -30 -69 -45q-18 -7 -39 -7q-27 0 -52 7q-36 14 -109 40q-41 14 -67 -17q-9 -9 -23 -9q-13 0 -22 9l-39 40q-9 9 -9 22q0 14 9 23q48 54 118 54q27 0 51 -7q13 -4 104 -37q12 -4 24 -4q23 0 39 16q9 9 22 9q14 0 23 -9l39 -40q9 -9 9 -23q0 -13 -9 -22z
M580 40q0 -17 -11.5 -28.5t-28.5 -11.5h-70q-17 0 -28.5 11.5t-11.5 28.5l-1 170q0 17 -11.5 28.5t-28.5 11.5h-169q-17 0 -28.5 -11.5t-11.5 -28.5v-170q0 -17 -11.5 -28.5t-28.5 -11.5h-70q-17 0 -28.5 11.5t-11.5 28.5v560q0 31 22 53l175 175q22 22 53 22h50
q31 0 53 -22l175 -175q22 -22 22 -53v-560zM430 440v98q0 31 -22 53l-75 75q-8 12 -28 12t-28 -12l-75 -75q-22 -22 -22 -53v-98q0 -17 11.5 -28.5t28.5 -11.5h169q17 0 29 12t12 28z" />
    <glyph glyph-name="Adieresis" unicode="&#xc4;" 
d="M435 925q0 -17 -11.5 -28.5t-28.5 -11.5t-28.5 11.5t-11.5 28.5t11.5 28.5t28.5 11.5t28.5 -11.5t11.5 -28.5zM255 925q0 -17 -11.5 -28.5t-28.5 -11.5t-28.5 11.5t-11.5 28.5t11.5 28.5t28.5 11.5t28.5 -11.5t11.5 -28.5zM580 40q0 -17 -11.5 -28.5t-28.5 -11.5h-70
q-17 0 -28.5 11.5t-11.5 28.5l-1 170q0 17 -11.5 28.5t-28.5 11.5h-169q-17 0 -28.5 -11.5t-11.5 -28.5v-170q0 -17 -11.5 -28.5t-28.5 -11.5h-70q-17 0 -28.5 11.5t-11.5 28.5v560q0 31 22 53l175 175q22 22 53 22h50q31 0 53 -22l175 -175q22 -22 22 -53v-560zM430 440v98
q0 31 -22 53l-75 75q-8 12 -28 12t-28 -12l-75 -75q-22 -22 -22 -53v-98q0 -17 11.5 -28.5t28.5 -11.5h169q17 0 29 12t12 28z" />
    <glyph glyph-name="Aring" unicode="&#xc5;" 
d="M365 940q0 -25 -17.5 -42.5t-42.5 -17.5t-42.5 17.5t-17.5 42.5t17.5 42.5t42.5 17.5t42.5 -17.5t17.5 -42.5zM325 940q0 20 -20 20t-20 -20t20 -20t20 20zM580 40q0 -17 -11.5 -28.5t-28.5 -11.5h-70q-17 0 -28.5 11.5t-11.5 28.5l-1 170q0 17 -11.5 28.5t-28.5 11.5
h-169q-17 0 -28.5 -11.5t-11.5 -28.5v-170q0 -17 -11.5 -28.5t-28.5 -11.5h-70q-17 0 -28.5 11.5t-11.5 28.5v560q0 31 22 53l175 175q22 22 53 22h50q31 0 53 -22l175 -175q22 -22 22 -53v-560zM430 440v98q0 31 -22 53l-75 75q-8 12 -28 12t-28 -12l-75 -75
q-22 -22 -22 -53v-98q0 -17 11.5 -28.5t28.5 -11.5h169q17 0 29 12t12 28z" />
    <glyph glyph-name="AE" unicode="&#xc6;" horiz-adv-x="1030" 
d="M980 40q0 -17 -11.5 -28.5t-28.5 -11.5h-470q-17 0 -28.5 11.5t-11.5 28.5l-1 170q0 17 -11.5 28.5t-28.5 11.5h-169q-17 0 -28.5 -11.5t-11.5 -28.5v-170q0 -17 -11.5 -28.5t-28.5 -11.5h-70q-17 0 -28.5 11.5t-11.5 28.5v560q0 31 22 53l175 175q22 22 53 22h50
q31 0 53 -22l47 -47v29q0 17 11.5 28.5t28.5 11.5h470q17 0 28.5 -11.5t11.5 -28.5v-70q0 -17 -11.5 -28.5t-28.5 -11.5h-320q-17 0 -28.5 -11.5t-11.5 -28.5v-120q0 -17 11.5 -28.5t28.5 -11.5h220q17 0 28.5 -11.5t11.5 -28.5v-70q0 -17 -11.5 -28.5t-28.5 -11.5h-220
q-17 0 -28.5 -11.5t-11.5 -28.5v-120q0 -17 11.5 -28.5t28.5 -11.5h320q17 0 28.5 -11.5t11.5 -28.5v-70zM430 440v98q0 31 -22 53l-75 75q-8 12 -28 12t-28 -12l-75 -75q-22 -22 -22 -53v-98q0 -17 11.5 -28.5t28.5 -11.5h169q17 0 29 12t12 28z" />
    <glyph glyph-name="Ccedilla" unicode="&#xc7;" 
d="M580 185q0 -31 -22 -53l-110 -110q-22 -22 -53 -22h-18v-48q0 -18 -13 -31t-32 -13h-54q-19 0 -32 13t-13 31v48h-18q-31 0 -53 22l-110 110q-22 22 -22 53v480q0 31 22 53l110 110q22 22 53 22h180q31 0 53 -22l110 -110q22 -22 22 -53v-125q0 -17 -11.5 -28.5
t-28.5 -11.5h-70q-17 0 -28.5 11.5t-11.5 28.5v63q0 31 -22 53l-22 22q-22 22 -53 22h-56q-31 0 -53 -22l-22 -22q-22 -22 -22 -53v-356q0 -31 22 -53l22 -22q22 -22 53 -22h56q31 0 53 22l22 22q22 22 22 53q0 17 11.5 28.5t28.5 11.5h70q17 0 28.5 -11.5t11.5 -28.5v-62z
" />
    <glyph glyph-name="Egrave" unicode="&#xc8;" 
d="M333 888q-24 0 -53 12l-170 71q-14 6 -14 23q0 19 14 33l50 50q12 12 28 12t28 -12l121 -120q19 -19 19 -45q0 -24 -23 -24zM580 40q0 -17 -11.5 -28.5t-28.5 -11.5h-470q-17 0 -28.5 11.5t-11.5 28.5v770q0 17 11.5 28.5t28.5 11.5h470q17 0 28.5 -11.5t11.5 -28.5v-70
q0 -17 -11.5 -28.5t-28.5 -11.5h-320q-17 0 -28.5 -11.5t-11.5 -28.5v-120q0 -17 11.5 -28.5t28.5 -11.5h220q17 0 28.5 -11.5t11.5 -28.5v-70q0 -17 -11.5 -28.5t-28.5 -11.5h-220q-17 0 -28.5 -11.5t-11.5 -28.5v-120q0 -17 11.5 -28.5t28.5 -11.5h320q17 0 28.5 -11.5
t11.5 -28.5v-70z" />
    <glyph glyph-name="Eacute" unicode="&#xc9;" 
d="M500 971l-170 -71q-29 -12 -53 -12q-23 0 -23 24q0 26 19 45l121 120q12 12 28 12t28 -12l50 -50q14 -14 14 -33q0 -17 -14 -23zM580 40q0 -17 -11.5 -28.5t-28.5 -11.5h-470q-17 0 -28.5 11.5t-11.5 28.5v770q0 17 11.5 28.5t28.5 11.5h470q17 0 28.5 -11.5t11.5 -28.5
v-70q0 -17 -11.5 -28.5t-28.5 -11.5h-320q-17 0 -28.5 -11.5t-11.5 -28.5v-120q0 -17 11.5 -28.5t28.5 -11.5h220q17 0 28.5 -11.5t11.5 -28.5v-70q0 -17 -11.5 -28.5t-28.5 -11.5h-220q-17 0 -28.5 -11.5t-11.5 -28.5v-120q0 -17 11.5 -28.5t28.5 -11.5h320
q17 0 28.5 -11.5t11.5 -28.5v-70z" />
    <glyph glyph-name="Ecircumflex" unicode="&#xca;" 
d="M466 892q1 -6 -11 -6q-24 0 -58 14l-92 38l-92 -38q-34 -14 -58 -14q-12 0 -11 6q-10 -1 -10 13q0 34 22 52l121 100q19 16 28 12q9 4 28 -12l121 -100q22 -18 22 -52q0 -14 -10 -13zM580 40q0 -17 -11.5 -28.5t-28.5 -11.5h-470q-17 0 -28.5 11.5t-11.5 28.5v770
q0 17 11.5 28.5t28.5 11.5h470q17 0 28.5 -11.5t11.5 -28.5v-70q0 -17 -11.5 -28.5t-28.5 -11.5h-320q-17 0 -28.5 -11.5t-11.5 -28.5v-120q0 -17 11.5 -28.5t28.5 -11.5h220q17 0 28.5 -11.5t11.5 -28.5v-70q0 -17 -11.5 -28.5t-28.5 -11.5h-220q-17 0 -28.5 -11.5
t-11.5 -28.5v-120q0 -17 11.5 -28.5t28.5 -11.5h320q17 0 28.5 -11.5t11.5 -28.5v-70z" />
    <glyph glyph-name="Edieresis" unicode="&#xcb;" 
d="M435 925q0 -17 -11.5 -28.5t-28.5 -11.5t-28.5 11.5t-11.5 28.5t11.5 28.5t28.5 11.5t28.5 -11.5t11.5 -28.5zM255 925q0 -17 -11.5 -28.5t-28.5 -11.5t-28.5 11.5t-11.5 28.5t11.5 28.5t28.5 11.5t28.5 -11.5t11.5 -28.5zM580 40q0 -17 -11.5 -28.5t-28.5 -11.5h-470
q-17 0 -28.5 11.5t-11.5 28.5v770q0 17 11.5 28.5t28.5 11.5h470q17 0 28.5 -11.5t11.5 -28.5v-70q0 -17 -11.5 -28.5t-28.5 -11.5h-320q-17 0 -28.5 -11.5t-11.5 -28.5v-120q0 -17 11.5 -28.5t28.5 -11.5h220q17 0 28.5 -11.5t11.5 -28.5v-70q0 -17 -11.5 -28.5
t-28.5 -11.5h-220q-17 0 -28.5 -11.5t-11.5 -28.5v-120q0 -17 11.5 -28.5t28.5 -11.5h320q17 0 28.5 -11.5t11.5 -28.5v-70z" />
    <glyph glyph-name="Igrave" unicode="&#xcc;" 
d="M333 888q-24 0 -53 12l-170 71q-14 6 -14 23q0 19 14 33l50 50q12 12 28 12t28 -12l121 -120q19 -19 19 -45q0 -24 -23 -24zM580 40q0 -17 -11.5 -28.5t-28.5 -11.5h-470q-17 0 -28.5 11.5t-11.5 28.5v70q0 17 11.5 28.5t28.5 11.5h120q17 0 28.5 11.5t11.5 28.5v470
q0 17 -11.5 28.5t-28.5 11.5h-120q-17 0 -28.5 11.5t-11.5 28.5v70q0 17 11.5 28.5t28.5 11.5h470q17 0 28.5 -11.5t11.5 -28.5v-70q0 -17 -11.5 -28.5t-28.5 -11.5h-120q-17 0 -28.5 -11.5t-11.5 -28.5v-470q0 -17 11.5 -28.5t28.5 -11.5h120q17 0 28.5 -11.5t11.5 -28.5
v-70z" />
    <glyph glyph-name="Iacute" unicode="&#xcd;" 
d="M500 971l-170 -71q-29 -12 -53 -12q-23 0 -23 24q0 26 19 45l121 120q12 12 28 12t28 -12l50 -50q14 -14 14 -33q0 -17 -14 -23zM580 40q0 -17 -11.5 -28.5t-28.5 -11.5h-470q-17 0 -28.5 11.5t-11.5 28.5v70q0 17 11.5 28.5t28.5 11.5h120q17 0 28.5 11.5t11.5 28.5v470
q0 17 -11.5 28.5t-28.5 11.5h-120q-17 0 -28.5 11.5t-11.5 28.5v70q0 17 11.5 28.5t28.5 11.5h470q17 0 28.5 -11.5t11.5 -28.5v-70q0 -17 -11.5 -28.5t-28.5 -11.5h-120q-17 0 -28.5 -11.5t-11.5 -28.5v-470q0 -17 11.5 -28.5t28.5 -11.5h120q17 0 28.5 -11.5t11.5 -28.5
v-70z" />
    <glyph glyph-name="Icircumflex" unicode="&#xce;" 
d="M466 892q1 -6 -11 -6q-24 0 -58 14l-92 38l-92 -38q-34 -14 -58 -14q-12 0 -11 6q-10 -1 -10 13q0 34 22 52l121 100q19 16 28 12q9 4 28 -12l121 -100q22 -18 22 -52q0 -14 -10 -13zM580 40q0 -17 -11.5 -28.5t-28.5 -11.5h-470q-17 0 -28.5 11.5t-11.5 28.5v70
q0 17 11.5 28.5t28.5 11.5h120q17 0 28.5 11.5t11.5 28.5v470q0 17 -11.5 28.5t-28.5 11.5h-120q-17 0 -28.5 11.5t-11.5 28.5v70q0 17 11.5 28.5t28.5 11.5h470q17 0 28.5 -11.5t11.5 -28.5v-70q0 -17 -11.5 -28.5t-28.5 -11.5h-120q-17 0 -28.5 -11.5t-11.5 -28.5v-470
q0 -17 11.5 -28.5t28.5 -11.5h120q17 0 28.5 -11.5t11.5 -28.5v-70z" />
    <glyph glyph-name="Idieresis" unicode="&#xcf;" 
d="M435 925q0 -17 -11.5 -28.5t-28.5 -11.5t-28.5 11.5t-11.5 28.5t11.5 28.5t28.5 11.5t28.5 -11.5t11.5 -28.5zM255 925q0 -17 -11.5 -28.5t-28.5 -11.5t-28.5 11.5t-11.5 28.5t11.5 28.5t28.5 11.5t28.5 -11.5t11.5 -28.5zM580 40q0 -17 -11.5 -28.5t-28.5 -11.5h-470
q-17 0 -28.5 11.5t-11.5 28.5v70q0 17 11.5 28.5t28.5 11.5h120q17 0 28.5 11.5t11.5 28.5v470q0 17 -11.5 28.5t-28.5 11.5h-120q-17 0 -28.5 11.5t-11.5 28.5v70q0 17 11.5 28.5t28.5 11.5h470q17 0 28.5 -11.5t11.5 -28.5v-70q0 -17 -11.5 -28.5t-28.5 -11.5h-120
q-17 0 -28.5 -11.5t-11.5 -28.5v-470q0 -17 11.5 -28.5t28.5 -11.5h120q17 0 28.5 -11.5t11.5 -28.5v-70z" />
    <glyph glyph-name="Eth" unicode="&#xd0;" horiz-adv-x="730" 
d="M680 250q0 -31 -22 -53l-175 -175q-22 -22 -53 -22h-260q-17 0 -28.5 11.5t-11.5 28.5v310h-60q-17 0 -28.5 11.5t-11.5 28.5v70q0 17 11.5 28.5t28.5 11.5h60v310q0 17 11.5 28.5t28.5 11.5h260q31 0 53 -22l175 -175q22 -22 22 -53v-350zM530 312v226q0 31 -22 53
l-87 87q-22 22 -53 22h-48q-17 0 -28.5 -11.5t-11.5 -28.5v-160h60q17 0 28.5 -11.5t11.5 -28.5v-70q0 -17 -11.5 -28.5t-28.5 -11.5h-60v-160q0 -17 11.5 -28.5t28.5 -11.5h48q31 0 53 22l87 87q22 22 22 53z" />
    <glyph glyph-name="Ntilde" unicode="&#xd1;" 
d="M515 952q-29 -30 -69 -45q-18 -7 -39 -7q-27 0 -52 7q-36 14 -109 40q-41 14 -67 -17q-9 -9 -23 -9q-13 0 -22 9l-39 40q-9 9 -9 22q0 14 9 23q48 54 118 54q27 0 51 -7q13 -4 104 -37q12 -4 24 -4q23 0 39 16q9 9 22 9q14 0 23 -9l39 -40q9 -9 9 -23q0 -13 -9 -22z
M580 40q0 -17 -11.5 -28.5t-28.5 -11.5h-35q-31 0 -53 22l-272 471v-453q0 -17 -11.5 -28.5t-28.5 -11.5h-70q-17 0 -28.5 11.5t-11.5 28.5v770q0 17 11.5 28.5t28.5 11.5h35q31 0 53 -22l272 -471v453q0 17 11.5 28.5t28.5 11.5h70q17 0 28.5 -11.5t11.5 -28.5v-770z" />
    <glyph glyph-name="Ograve" unicode="&#xd2;" 
d="M333 888q-24 0 -53 12l-170 71q-14 6 -14 23q0 19 14 33l50 50q12 12 28 12t28 -12l121 -120q19 -19 19 -45q0 -24 -23 -24zM580 185q0 -31 -22 -53l-110 -110q-22 -22 -53 -22h-180q-31 0 -53 22l-110 110q-22 22 -22 53v480q0 31 22 53l110 110q22 22 53 22h180
q31 0 53 -22l110 -110q22 -22 22 -53v-480zM430 247v356q0 31 -22 53l-22 22q-22 22 -53 22h-56q-31 0 -53 -22l-22 -22q-22 -22 -22 -53v-356q0 -31 22 -53l22 -22q22 -22 53 -22h56q31 0 53 22l22 22q22 22 22 53z" />
    <glyph glyph-name="Oacute" unicode="&#xd3;" 
d="M500 971l-170 -71q-29 -12 -53 -12q-23 0 -23 24q0 26 19 45l121 120q12 12 28 12t28 -12l50 -50q14 -14 14 -33q0 -17 -14 -23zM580 185q0 -31 -22 -53l-110 -110q-22 -22 -53 -22h-180q-31 0 -53 22l-110 110q-22 22 -22 53v480q0 31 22 53l110 110q22 22 53 22h180
q31 0 53 -22l110 -110q22 -22 22 -53v-480zM430 247v356q0 31 -22 53l-22 22q-22 22 -53 22h-56q-31 0 -53 -22l-22 -22q-22 -22 -22 -53v-356q0 -31 22 -53l22 -22q22 -22 53 -22h56q31 0 53 22l22 22q22 22 22 53z" />
    <glyph glyph-name="Ocircumflex" unicode="&#xd4;" 
d="M466 892q1 -6 -11 -6q-24 0 -58 14l-92 38l-92 -38q-34 -14 -58 -14q-12 0 -11 6q-10 -1 -10 13q0 34 22 52l121 100q19 16 28 12q9 4 28 -12l121 -100q22 -18 22 -52q0 -14 -10 -13zM580 185q0 -31 -22 -53l-110 -110q-22 -22 -53 -22h-180q-31 0 -53 22l-110 110
q-22 22 -22 53v480q0 31 22 53l110 110q22 22 53 22h180q31 0 53 -22l110 -110q22 -22 22 -53v-480zM430 247v356q0 31 -22 53l-22 22q-22 22 -53 22h-56q-31 0 -53 -22l-22 -22q-22 -22 -22 -53v-356q0 -31 22 -53l22 -22q22 -22 53 -22h56q31 0 53 22l22 22q22 22 22 53z
" />
    <glyph glyph-name="Otilde" unicode="&#xd5;" 
d="M515 952q-29 -30 -69 -45q-18 -7 -39 -7q-27 0 -52 7q-36 14 -109 40q-41 14 -67 -17q-9 -9 -23 -9q-13 0 -22 9l-39 40q-9 9 -9 22q0 14 9 23q48 54 118 54q27 0 51 -7q13 -4 104 -37q12 -4 24 -4q23 0 39 16q9 9 22 9q14 0 23 -9l39 -40q9 -9 9 -23q0 -13 -9 -22z
M580 185q0 -31 -22 -53l-110 -110q-22 -22 -53 -22h-180q-31 0 -53 22l-110 110q-22 22 -22 53v480q0 31 22 53l110 110q22 22 53 22h180q31 0 53 -22l110 -110q22 -22 22 -53v-480zM430 247v356q0 31 -22 53l-22 22q-22 22 -53 22h-56q-31 0 -53 -22l-22 -22
q-22 -22 -22 -53v-356q0 -31 22 -53l22 -22q22 -22 53 -22h56q31 0 53 22l22 22q22 22 22 53z" />
    <glyph glyph-name="Odieresis" unicode="&#xd6;" 
d="M435 925q0 -17 -11.5 -28.5t-28.5 -11.5t-28.5 11.5t-11.5 28.5t11.5 28.5t28.5 11.5t28.5 -11.5t11.5 -28.5zM255 925q0 -17 -11.5 -28.5t-28.5 -11.5t-28.5 11.5t-11.5 28.5t11.5 28.5t28.5 11.5t28.5 -11.5t11.5 -28.5zM580 185q0 -31 -22 -53l-110 -110
q-22 -22 -53 -22h-180q-31 0 -53 22l-110 110q-22 22 -22 53v480q0 31 22 53l110 110q22 22 53 22h180q31 0 53 -22l110 -110q22 -22 22 -53v-480zM430 247v356q0 31 -22 53l-22 22q-22 22 -53 22h-56q-31 0 -53 -22l-22 -22q-22 -22 -22 -53v-356q0 -31 22 -53l22 -22
q22 -22 53 -22h56q31 0 53 22l22 22q22 22 22 53z" />
    <glyph glyph-name="multiply" unicode="&#xd7;" horiz-adv-x="541" 
d="M480 170l-49 -49q-12 -12 -29 -12q-16 0 -28 12l-113 113l-113 -113q-12 -12 -29 -12q-16 0 -28 12l-49 49q-12 12 -12 28q0 17 12 29l113 113l-113 113q-12 12 -12 28q0 17 12 29l49 49q12 12 28 12q17 0 29 -12l113 -113l113 113q12 12 28 12q17 0 29 -12l49 -49
q12 -12 12 -29q0 -16 -12 -28l-113 -113l113 -113q12 -12 12 -29q0 -16 -12 -28z" />
    <glyph glyph-name="Oslash" unicode="&#xd8;" 
d="M580 185q0 -31 -22 -53l-110 -110q-22 -22 -53 -22h-180q-31 0 -53 22l-2 -2q-12 -20 -35 -20q-10 0 -19 5l-61 35q-20 11 -20 34q0 11 6 21l21 37q-22 22 -22 53v480q0 31 22 53l110 110q22 22 53 22h180q31 0 53 -22l1 2q12 20 34 20q11 0 20 -5l61 -35q20 -11 20 -34
q0 -11 -6 -21l-20 -37q22 -22 22 -53v-480zM370 690q-19 10 -37 10h-56q-31 0 -53 -22l-22 -22q-22 -22 -22 -53v-247zM430 247v246l-190 -333q19 -10 37 -10h56q31 0 53 22l22 22q22 22 22 53z" />
    <glyph glyph-name="Ugrave" unicode="&#xd9;" 
d="M333 888q-24 0 -53 12l-170 71q-14 6 -14 23q0 19 14 33l50 50q12 12 28 12t28 -12l121 -120q19 -19 19 -45q0 -24 -23 -24zM580 185q0 -31 -22 -53l-110 -110q-22 -22 -53 -22h-180q-31 0 -53 22l-110 110q-22 22 -22 53v625q0 17 11.5 28.5t28.5 11.5h70
q17 0 28.5 -11.5t11.5 -28.5v-563q0 -31 22 -53l22 -22q22 -22 53 -22h56q31 0 53 22l22 22q22 22 22 53v563q0 17 11.5 28.5t28.5 11.5h70q17 0 28.5 -11.5t11.5 -28.5v-625z" />
    <glyph glyph-name="Uacute" unicode="&#xda;" 
d="M500 971l-170 -71q-29 -12 -53 -12q-23 0 -23 24q0 26 19 45l121 120q12 12 28 12t28 -12l50 -50q14 -14 14 -33q0 -17 -14 -23zM580 185q0 -31 -22 -53l-110 -110q-22 -22 -53 -22h-180q-31 0 -53 22l-110 110q-22 22 -22 53v625q0 17 11.5 28.5t28.5 11.5h70
q17 0 28.5 -11.5t11.5 -28.5v-563q0 -31 22 -53l22 -22q22 -22 53 -22h56q31 0 53 22l22 22q22 22 22 53v563q0 17 11.5 28.5t28.5 11.5h70q17 0 28.5 -11.5t11.5 -28.5v-625z" />
    <glyph glyph-name="Ucircumflex" unicode="&#xdb;" 
d="M466 892q1 -6 -11 -6q-24 0 -58 14l-92 38l-92 -38q-34 -14 -58 -14q-12 0 -11 6q-10 -1 -10 13q0 34 22 52l121 100q19 16 28 12q9 4 28 -12l121 -100q22 -18 22 -52q0 -14 -10 -13zM580 185q0 -31 -22 -53l-110 -110q-22 -22 -53 -22h-180q-31 0 -53 22l-110 110
q-22 22 -22 53v625q0 17 11.5 28.5t28.5 11.5h70q17 0 28.5 -11.5t11.5 -28.5v-563q0 -31 22 -53l22 -22q22 -22 53 -22h56q31 0 53 22l22 22q22 22 22 53v563q0 17 11.5 28.5t28.5 11.5h70q17 0 28.5 -11.5t11.5 -28.5v-625z" />
    <glyph glyph-name="Udieresis" unicode="&#xdc;" 
d="M435 925q0 -17 -11.5 -28.5t-28.5 -11.5t-28.5 11.5t-11.5 28.5t11.5 28.5t28.5 11.5t28.5 -11.5t11.5 -28.5zM255 925q0 -17 -11.5 -28.5t-28.5 -11.5t-28.5 11.5t-11.5 28.5t11.5 28.5t28.5 11.5t28.5 -11.5t11.5 -28.5zM580 185q0 -31 -22 -53l-110 -110
q-22 -22 -53 -22h-180q-31 0 -53 22l-110 110q-22 22 -22 53v625q0 17 11.5 28.5t28.5 11.5h70q17 0 28.5 -11.5t11.5 -28.5v-563q0 -31 22 -53l22 -22q22 -22 53 -22h56q31 0 53 22l22 22q22 22 22 53v563q0 17 11.5 28.5t28.5 11.5h70q17 0 28.5 -11.5t11.5 -28.5v-625z
" />
    <glyph glyph-name="Yacute" unicode="&#xdd;" 
d="M500 971l-170 -71q-29 -12 -53 -12q-23 0 -23 24q0 26 19 45l121 120q12 12 28 12t28 -12l50 -50q14 -14 14 -33q0 -17 -14 -23zM580 578q0 -31 -22 -53l-175 -175q-3 -3 -3 -17v-293q0 -17 -11.5 -28.5t-28.5 -11.5h-70q-17 0 -28.5 11.5t-11.5 28.5v293q0 14 -3 17
l-175 175q-22 22 -22 53v232q0 17 11.5 28.5t28.5 11.5h70q17 0 28.5 -11.5t11.5 -28.5v-170q0 -31 22 -53l75 -75q8 -12 28 -12t28 12l75 75q22 22 22 53v170q0 17 11.5 28.5t28.5 11.5h70q17 0 28.5 -11.5t11.5 -28.5v-232z" />
    <glyph glyph-name="Thorn" unicode="&#xde;" horiz-adv-x="800" 
d="M725 534q0 -10 -31 -12q-18 -1 -43 -1q21 -22 41 -45q0 -9 -8 -9q-12 0 -41 42q9 -63 9 -57q0 -10 -11 -10q-13 0 -13 47q0 13 1 31h-46q-6 0 -6 6q0 4 49 10q-35 41 -35 67q0 10 11 10q8 0 10 -9q7 -27 20 -53q1 14 8 32q9 23 18 23q11 0 11 -10q0 -4 -10 -14.5
t-11.5 -14t-5.5 -29.5q51 7 72 7q11 0 11 -11zM739 242q-2 -2 -29 -8t-32 -6q-7 0 -6 30q-35 -27 -67 -27q-20 0 -36 13t-16 33q0 31 31 47q26 9 53 18q35 16 35 35q0 24 -28 24q-14 0 -35.5 -21.5t-28.5 -21.5q-16 0 -16 18q0 20 33 33q27 11 51 11q64 0 64 -79v-23
q-1 -31 -1 -23q0 -30 9 -36q7 -1 19 -12v-5zM495 410l-1 -5q-1 -1 -29.5 -7t-32.5 -6q-7 0 -6 29q-35 -27 -66 -27q-20 0 -36.5 13.5t-16.5 33.5q0 31 31 47q26 9 53 18q35 15 35 34q0 24 -28 24q-14 0 -35 -21t-29 -21q-16 0 -16 18q0 20 33 33q27 11 51 11q64 0 64 -79
v-23q-1 -31 -1 -23q0 -30 9 -36q9 -2 21 -13zM572 210q-4 -11 -67 -20q-9 4 -8 26q-30 -22 -61 -22q-33 0 -55 30q-20 27 -20 62q0 39 26.5 68t65.5 29q24 0 45 -12v81q0 7 -4 13l-13 1l-7 7q6 19 78 47l8 -8q-20 -26 -20 -38v-231q0 -16 15 -21t17 -12zM335 504
q0 -6 -16.5 -11t-16.5 -23v-222q0 -7 -4 -13q-6 -2 -12 -2q-18 0 -20 10q-31 144 -119 197v-163q0 -16 16.5 -22t16.5 -12q0 -8 -17 -10q-12 -2 -32 -1l-22 1q-26 0 -26 10q0 6 16 12t16 22v186q-9 8 -16 8t-17 -10t-13 -12l-8 7q7 31 12 40q10 24 30 24q46 0 97 -50
q39 -38 70 -91l1 61q1 45 -10 51q-2 0 -12.5 2.5t-10.5 10.5q0 10 27 10q70 0 70 -10zM672 338q-1 -1 -46 -21q-30 -13 -30 -33q0 -26 30 -26q46 0 46 80zM426 501q-2 -2 -45 -21q-30 -13 -30 -33q0 -26 29 -26q46 0 46 80zM498 278v70q-23 15 -43 15q-25 0 -39.5 -20.5
t-14.5 -47.5q0 -28 14 -49q16 -24 42 -24q41 0 41 56z" />
    <glyph glyph-name="germandbls" unicode="&#xdf;" 
d="M580 185q0 -31 -22 -53l-304 -304q-12 -12 -28 -12t-28 12l-50 50q-12 12 -12 28t12 28l260 260q22 22 22 53v6q0 31 -22 53l-22 22q-22 22 -53 22h-113q-17 0 -28.5 -11.5t-11.5 -28.5v-270q0 -17 -11.5 -28.5t-28.5 -11.5h-70q-17 0 -28.5 11.5t-11.5 28.5v770
q0 17 11.5 28.5t28.5 11.5h325q31 0 53 -22l110 -110q22 -22 22 -53v-130q0 -31 -22 -53l-57 -57l57 -57q22 -22 22 -53v-130zM430 597v6q0 31 -22 53l-22 22q-22 22 -53 22h-113q-17 0 -28.5 -11.5t-11.5 -28.5v-120q0 -17 11.5 -28.5t28.5 -11.5h113q31 0 53 22l22 22
q22 22 22 53z" />
    <glyph glyph-name="agrave" unicode="&#xe0;" horiz-adv-x="520" 
d="M286 724q-12 -12 -55 6l-136 57q-11 5 -11 18q0 15 11 26l40 40q9 9 22 9q14 0 23 -9l96 -96q16 -16 16 -36q0 -9 -6 -15zM470 45q0 -19 -13 -32t-31 -13h-52q-18 0 -31 13t-13 32l-1 130q0 17 -16 17h-127q-16 0 -16 -17v-130q0 -19 -13 -32t-31 -13h-52q-18 0 -31 13
t-13 32v429q0 30 21 51l131 134q21 21 49 21h38q28 0 49 -21l131 -134q21 -21 21 -51v-429zM330 351v76q0 21 -31 53q-20 17 -39 35q-3 4 -10 4t-10 -4q-19 -18 -39 -35q-31 -32 -31 -53v-76q0 -16 16 -16h127q17 0 17 16z" />
    <glyph glyph-name="aacute" unicode="&#xe1;" horiz-adv-x="520" 
d="M405 787l-136 -57q-43 -18 -55 -6q-6 6 -6 15q0 20 16 36l96 96q9 9 23 9q13 0 22 -9l40 -40q11 -11 11 -26q0 -13 -11 -18zM470 45q0 -19 -13 -32t-31 -13h-52q-18 0 -31 13t-13 32l-1 130q0 17 -16 17h-127q-16 0 -16 -17v-130q0 -19 -13 -32t-31 -13h-52q-18 0 -31 13
t-13 32v429q0 30 21 51l131 134q21 21 49 21h38q28 0 49 -21l131 -134q21 -21 21 -51v-429zM330 351v76q0 21 -31 53q-20 17 -39 35q-3 4 -10 4t-10 -4q-19 -18 -39 -35q-31 -32 -31 -53v-76q0 -16 16 -16h127q17 0 17 16z" />
    <glyph glyph-name="acircumflex" unicode="&#xe2;" horiz-adv-x="520" 
d="M379 730q1 -5 -9 -5q-20 0 -46 11l-74 31l-74 -31q-26 -11 -46 -11q-10 0 -9 5q-8 -1 -8 10q0 27 18 42l97 80q15 12 22 9q7 3 22 -9l97 -80q18 -15 18 -42q0 -11 -8 -10zM470 45q0 -19 -13 -32t-31 -13h-52q-18 0 -31 13t-13 32l-1 130q0 17 -16 17h-127q-16 0 -16 -17
v-130q0 -19 -13 -32t-31 -13h-52q-18 0 -31 13t-13 32v429q0 30 21 51l131 134q21 21 49 21h38q28 0 49 -21l131 -134q21 -21 21 -51v-429zM330 351v76q0 21 -31 53q-20 17 -39 35q-3 4 -10 4t-10 -4q-19 -18 -39 -35q-31 -32 -31 -53v-76q0 -16 16 -16h127q17 0 17 16z" />
    <glyph glyph-name="atilde" unicode="&#xe3;" horiz-adv-x="520" 
d="M460 782q-29 -30 -69 -45q-18 -7 -39 -7q-27 0 -52 7q-36 14 -109 40q-41 14 -67 -17q-9 -9 -23 -9q-13 0 -22 9l-39 40q-9 9 -9 22q0 14 9 23q48 54 118 54q27 0 51 -7q13 -4 104 -37q12 -4 24 -4q23 0 39 16q9 9 22 9q14 0 23 -9l39 -40q9 -9 9 -23q0 -13 -9 -22z
M470 45q0 -19 -13 -32t-31 -13h-52q-18 0 -31 13t-13 32l-1 130q0 17 -16 17h-127q-16 0 -16 -17v-130q0 -19 -13 -32t-31 -13h-52q-18 0 -31 13t-13 32v429q0 30 21 51l131 134q21 21 49 21h38q28 0 49 -21l131 -134q21 -21 21 -51v-429zM330 351v76q0 21 -31 53
q-20 17 -39 35q-3 4 -10 4t-10 -4q-19 -18 -39 -35q-31 -32 -31 -53v-76q0 -16 16 -16h127q17 0 17 16z" />
    <glyph glyph-name="adieresis" unicode="&#xe4;" horiz-adv-x="520" 
d="M380 770q0 -17 -11.5 -28.5t-28.5 -11.5t-28.5 11.5t-11.5 28.5t11.5 28.5t28.5 11.5t28.5 -11.5t11.5 -28.5zM200 770q0 -17 -11.5 -28.5t-28.5 -11.5t-28.5 11.5t-11.5 28.5t11.5 28.5t28.5 11.5t28.5 -11.5t11.5 -28.5zM470 45q0 -19 -13 -32t-31 -13h-52
q-18 0 -31 13t-13 32l-1 130q0 17 -16 17h-127q-16 0 -16 -17v-130q0 -19 -13 -32t-31 -13h-52q-18 0 -31 13t-13 32v429q0 30 21 51l131 134q21 21 49 21h38q28 0 49 -21l131 -134q21 -21 21 -51v-429zM330 351v76q0 21 -31 53q-20 17 -39 35q-3 4 -10 4t-10 -4
q-19 -18 -39 -35q-31 -32 -31 -53v-76q0 -16 16 -16h127q17 0 17 16z" />
    <glyph glyph-name="aring" unicode="&#xe5;" horiz-adv-x="520" 
d="M310 790q0 -25 -17.5 -42.5t-42.5 -17.5t-42.5 17.5t-17.5 42.5t17.5 42.5t42.5 17.5t42.5 -17.5t17.5 -42.5zM270 790q0 20 -20 20t-20 -20t20 -20t20 20zM470 45q0 -19 -13 -32t-31 -13h-52q-18 0 -31 13t-13 32l-1 130q0 17 -16 17h-127q-16 0 -16 -17v-130
q0 -19 -13 -32t-31 -13h-52q-18 0 -31 13t-13 32v429q0 30 21 51l131 134q21 21 49 21h38q28 0 49 -21l131 -134q21 -21 21 -51v-429zM330 351v76q0 21 -31 53q-20 17 -39 35q-3 4 -10 4t-10 -4q-19 -18 -39 -35q-31 -32 -31 -53v-76q0 -16 16 -16h127q17 0 17 16z" />
    <glyph glyph-name="ae" unicode="&#xe6;" horiz-adv-x="840" 
d="M790 45q0 -19 -13 -32t-32 -13h-362q-19 0 -32 13t-13 32l-1 130q0 17 -16 17h-130q-17 0 -17 -17v-130q0 -19 -13 -32t-32 -13h-54q-19 0 -32 13t-13 32v429q0 30 21 51l135 134q21 21 51 21h38q30 0 64 -34q9 34 44 34h362q19 0 32 -13t13 -32v-54q0 -19 -13 -32
t-32 -13h-246q-17 0 -17 -16v-92q0 -16 17 -16h169q19 0 32 -13t13 -32v-54q0 -19 -13 -32t-32 -13h-169q-17 0 -17 -16v-92q0 -16 17 -16h246q19 0 32 -13t13 -32v-54zM338 351v76q0 21 -32 53q-19 17 -39 35q-3 4 -11 4q-7 0 -10 -4q-20 -18 -40 -35q-32 -32 -32 -53v-76
q0 -16 17 -16h130q17 0 17 16z" />
    <glyph glyph-name="ccedilla" unicode="&#xe7;" horiz-adv-x="520" 
d="M470 156q0 -30 -21 -51l-82 -84q-21 -21 -50 -21v-48q0 -18 -13 -31t-32 -13h-44q-19 0 -32 13t-13 31v48q-29 0 -50 21l-82 84q-21 21 -21 51v368q0 30 21 51l82 84q21 21 50 21h134q29 0 50 -21l82 -84q21 -21 21 -51v-96q0 -19 -13 -32t-31 -13h-52q-18 0 -31 13
t-13 32v48q0 19 -20 39.5t-39 20.5h-42q-19 0 -39 -20.5t-20 -39.5v-272q0 -19 20 -39.5t39 -20.5h42q19 0 39 20.5t20 39.5t13 32t31 13h52q18 0 31 -13t13 -32v-48z" />
    <glyph glyph-name="egrave" unicode="&#xe8;" horiz-adv-x="520" 
d="M286 724q-12 -12 -55 6l-136 57q-11 5 -11 18q0 15 11 26l40 40q9 9 22 9q14 0 23 -9l96 -96q16 -16 16 -36q0 -9 -6 -15zM470 45q0 -19 -13 -32t-31 -13h-352q-18 0 -31 13t-13 32v590q0 19 13 32t31 13h352q18 0 31 -13t13 -32v-54q0 -19 -13 -32t-31 -13h-240
q-16 0 -16 -16v-92q0 -16 16 -16h165q18 0 31 -13t13 -32v-54q0 -19 -13 -32t-31 -13h-165q-16 0 -16 -16v-92q0 -16 16 -16h240q18 0 31 -13t13 -32v-54z" />
    <glyph glyph-name="eacute" unicode="&#xe9;" horiz-adv-x="520" 
d="M405 787l-136 -57q-43 -18 -55 -6q-6 6 -6 15q0 20 16 36l96 96q9 9 23 9q13 0 22 -9l40 -40q11 -11 11 -26q0 -13 -11 -18zM470 45q0 -19 -13 -32t-31 -13h-352q-18 0 -31 13t-13 32v590q0 19 13 32t31 13h352q18 0 31 -13t13 -32v-54q0 -19 -13 -32t-31 -13h-240
q-16 0 -16 -16v-92q0 -16 16 -16h165q18 0 31 -13t13 -32v-54q0 -19 -13 -32t-31 -13h-165q-16 0 -16 -16v-92q0 -16 16 -16h240q18 0 31 -13t13 -32v-54z" />
    <glyph glyph-name="ecircumflex" unicode="&#xea;" horiz-adv-x="520" 
d="M379 730q1 -5 -9 -5q-20 0 -46 11l-74 31l-74 -31q-26 -11 -46 -11q-10 0 -9 5q-8 -1 -8 10q0 27 18 42l97 80q15 12 22 9q7 3 22 -9l97 -80q18 -15 18 -42q0 -11 -8 -10zM470 45q0 -19 -13 -32t-31 -13h-352q-18 0 -31 13t-13 32v590q0 19 13 32t31 13h352q18 0 31 -13
t13 -32v-54q0 -19 -13 -32t-31 -13h-240q-16 0 -16 -16v-92q0 -16 16 -16h165q18 0 31 -13t13 -32v-54q0 -19 -13 -32t-31 -13h-165q-16 0 -16 -16v-92q0 -16 16 -16h240q18 0 31 -13t13 -32v-54z" />
    <glyph glyph-name="edieresis" unicode="&#xeb;" horiz-adv-x="520" 
d="M380 770q0 -17 -11.5 -28.5t-28.5 -11.5t-28.5 11.5t-11.5 28.5t11.5 28.5t28.5 11.5t28.5 -11.5t11.5 -28.5zM200 770q0 -17 -11.5 -28.5t-28.5 -11.5t-28.5 11.5t-11.5 28.5t11.5 28.5t28.5 11.5t28.5 -11.5t11.5 -28.5zM470 45q0 -19 -13 -32t-31 -13h-352
q-18 0 -31 13t-13 32v590q0 19 13 32t31 13h352q18 0 31 -13t13 -32v-54q0 -19 -13 -32t-31 -13h-240q-16 0 -16 -16v-92q0 -16 16 -16h165q18 0 31 -13t13 -32v-54q0 -19 -13 -32t-31 -13h-165q-16 0 -16 -16v-92q0 -16 16 -16h240q18 0 31 -13t13 -32v-54z" />
    <glyph glyph-name="igrave" unicode="&#xec;" horiz-adv-x="520" 
d="M286 724q-12 -12 -55 6l-136 57q-11 5 -11 18q0 15 11 26l40 40q9 9 22 9q14 0 23 -9l96 -96q16 -16 16 -36q0 -9 -6 -15zM470 45q0 -19 -13 -32t-31 -13h-352q-18 0 -31 13t-13 32v54q0 19 13 32t31 13h90q16 0 16 16v360q0 16 -16 16h-90q-18 0 -31 13t-13 32v54
q0 19 13 32t31 13h352q18 0 31 -13t13 -32v-54q0 -19 -13 -32t-31 -13h-90q-16 0 -16 -16v-360q0 -16 16 -16h90q18 0 31 -13t13 -32v-54z" />
    <glyph glyph-name="iacute" unicode="&#xed;" horiz-adv-x="520" 
d="M405 787l-136 -57q-43 -18 -55 -6q-6 6 -6 15q0 20 16 36l96 96q9 9 23 9q13 0 22 -9l40 -40q11 -11 11 -26q0 -13 -11 -18zM470 45q0 -19 -13 -32t-31 -13h-352q-18 0 -31 13t-13 32v54q0 19 13 32t31 13h90q16 0 16 16v360q0 16 -16 16h-90q-18 0 -31 13t-13 32v54
q0 19 13 32t31 13h352q18 0 31 -13t13 -32v-54q0 -19 -13 -32t-31 -13h-90q-16 0 -16 -16v-360q0 -16 16 -16h90q18 0 31 -13t13 -32v-54z" />
    <glyph glyph-name="icircumflex" unicode="&#xee;" horiz-adv-x="520" 
d="M379 730q1 -5 -9 -5q-20 0 -46 11l-74 31l-74 -31q-26 -11 -46 -11q-10 0 -9 5q-8 -1 -8 10q0 27 18 42l97 80q15 12 22 9q7 3 22 -9l97 -80q18 -15 18 -42q0 -11 -8 -10zM470 45q0 -19 -13 -32t-31 -13h-352q-18 0 -31 13t-13 32v54q0 19 13 32t31 13h90q16 0 16 16v360
q0 16 -16 16h-90q-18 0 -31 13t-13 32v54q0 19 13 32t31 13h352q18 0 31 -13t13 -32v-54q0 -19 -13 -32t-31 -13h-90q-16 0 -16 -16v-360q0 -16 16 -16h90q18 0 31 -13t13 -32v-54z" />
    <glyph glyph-name="idieresis" unicode="&#xef;" horiz-adv-x="520" 
d="M380 770q0 -17 -11.5 -28.5t-28.5 -11.5t-28.5 11.5t-11.5 28.5t11.5 28.5t28.5 11.5t28.5 -11.5t11.5 -28.5zM200 770q0 -17 -11.5 -28.5t-28.5 -11.5t-28.5 11.5t-11.5 28.5t11.5 28.5t28.5 11.5t28.5 -11.5t11.5 -28.5zM470 45q0 -19 -13 -32t-31 -13h-352
q-18 0 -31 13t-13 32v54q0 19 13 32t31 13h90q16 0 16 16v360q0 16 -16 16h-90q-18 0 -31 13t-13 32v54q0 19 13 32t31 13h352q18 0 31 -13t13 -32v-54q0 -19 -13 -32t-31 -13h-90q-16 0 -16 -16v-360q0 -16 16 -16h90q18 0 31 -13t13 -32v-54z" />
    <glyph glyph-name="eth" unicode="&#xf0;" horiz-adv-x="800" 
d="M725 534q0 -10 -31 -12q-18 -1 -43 -1q21 -22 41 -45q0 -9 -8 -9q-12 0 -41 42q9 -63 9 -57q0 -10 -11 -10q-13 0 -13 47q0 13 1 31h-46q-6 0 -6 6q0 4 49 10q-35 41 -35 67q0 10 11 10q8 0 10 -9q7 -27 20 -53q1 14 8 32q9 23 18 23q11 0 11 -10q0 -4 -10 -14.5
t-11.5 -14t-5.5 -29.5q51 7 72 7q11 0 11 -11zM739 242q-2 -2 -29 -8t-32 -6q-7 0 -6 30q-35 -27 -67 -27q-20 0 -36 13t-16 33q0 31 31 47q26 9 53 18q35 16 35 35q0 24 -28 24q-14 0 -35.5 -21.5t-28.5 -21.5q-16 0 -16 18q0 20 33 33q27 11 51 11q64 0 64 -79v-23
q-1 -31 -1 -23q0 -30 9 -36q7 -1 19 -12v-5zM495 410l-1 -5q-1 -1 -29.5 -7t-32.5 -6q-7 0 -6 29q-35 -27 -66 -27q-20 0 -36.5 13.5t-16.5 33.5q0 31 31 47q26 9 53 18q35 15 35 34q0 24 -28 24q-14 0 -35 -21t-29 -21q-16 0 -16 18q0 20 33 33q27 11 51 11q64 0 64 -79
v-23q-1 -31 -1 -23q0 -30 9 -36q9 -2 21 -13zM572 210q-4 -11 -67 -20q-9 4 -8 26q-30 -22 -61 -22q-33 0 -55 30q-20 27 -20 62q0 39 26.5 68t65.5 29q24 0 45 -12v81q0 7 -4 13l-13 1l-7 7q6 19 78 47l8 -8q-20 -26 -20 -38v-231q0 -16 15 -21t17 -12zM335 504
q0 -6 -16.5 -11t-16.5 -23v-222q0 -7 -4 -13q-6 -2 -12 -2q-18 0 -20 10q-31 144 -119 197v-163q0 -16 16.5 -22t16.5 -12q0 -8 -17 -10q-12 -2 -32 -1l-22 1q-26 0 -26 10q0 6 16 12t16 22v186q-9 8 -16 8t-17 -10t-13 -12l-8 7q7 31 12 40q10 24 30 24q46 0 97 -50
q39 -38 70 -91l1 61q1 45 -10 51q-2 0 -12.5 2.5t-10.5 10.5q0 10 27 10q70 0 70 -10zM672 338q-1 -1 -46 -21q-30 -13 -30 -33q0 -26 30 -26q46 0 46 80zM426 501q-2 -2 -45 -21q-30 -13 -30 -33q0 -26 29 -26q46 0 46 80zM498 278v70q-23 15 -43 15q-25 0 -39.5 -20.5
t-14.5 -47.5q0 -28 14 -49q16 -24 42 -24q41 0 41 56z" />
    <glyph glyph-name="ntilde" unicode="&#xf1;" horiz-adv-x="520" 
d="M460 782q-29 -30 -69 -45q-18 -7 -39 -7q-27 0 -52 7q-36 14 -109 40q-41 14 -67 -17q-9 -9 -23 -9q-13 0 -22 9l-39 40q-9 9 -9 22q0 14 9 23q48 54 118 54q27 0 51 -7q13 -4 104 -37q12 -4 24 -4q23 0 39 16q9 9 22 9q14 0 23 -9l39 -40q9 -9 9 -23q0 -13 -9 -22z
M470 45q0 -19 -13 -32t-31 -13h-26q-29 0 -51 22l-179 316v-293q0 -19 -13 -32t-31 -13h-52q-18 0 -31 13t-13 32v590q0 19 13 32t31 13h26q29 0 51 -22l179 -317v294q0 19 13 32t31 13h52q18 0 31 -13t13 -32v-590z" />
    <glyph glyph-name="ograve" unicode="&#xf2;" horiz-adv-x="520" 
d="M286 724q-12 -12 -55 6l-136 57q-11 5 -11 18q0 15 11 26l40 40q9 9 22 9q14 0 23 -9l96 -96q16 -16 16 -36q0 -9 -6 -15zM470 156q0 -30 -21 -51l-82 -84q-21 -21 -50 -21h-134q-29 0 -50 21l-82 84q-21 21 -21 51v368q0 30 21 51l82 84q21 21 50 21h134q29 0 50 -21
l82 -84q21 -21 21 -51v-368zM330 204v272q0 19 -20 39.5t-39 20.5h-42q-19 0 -39 -20.5t-20 -39.5v-272q0 -19 20 -39.5t39 -20.5h42q19 0 39 20.5t20 39.5z" />
    <glyph glyph-name="oacute" unicode="&#xf3;" horiz-adv-x="520" 
d="M405 787l-136 -57q-43 -18 -55 -6q-6 6 -6 15q0 20 16 36l96 96q9 9 23 9q13 0 22 -9l40 -40q11 -11 11 -26q0 -13 -11 -18zM470 156q0 -30 -21 -51l-82 -84q-21 -21 -50 -21h-134q-29 0 -50 21l-82 84q-21 21 -21 51v368q0 30 21 51l82 84q21 21 50 21h134q29 0 50 -21
l82 -84q21 -21 21 -51v-368zM330 204v272q0 19 -20 39.5t-39 20.5h-42q-19 0 -39 -20.5t-20 -39.5v-272q0 -19 20 -39.5t39 -20.5h42q19 0 39 20.5t20 39.5z" />
    <glyph glyph-name="ocircumflex" unicode="&#xf4;" horiz-adv-x="520" 
d="M379 730q1 -5 -9 -5q-20 0 -46 11l-74 31l-74 -31q-26 -11 -46 -11q-10 0 -9 5q-8 -1 -8 10q0 27 18 42l97 80q15 12 22 9q7 3 22 -9l97 -80q18 -15 18 -42q0 -11 -8 -10zM470 156q0 -30 -21 -51l-82 -84q-21 -21 -50 -21h-134q-29 0 -50 21l-82 84q-21 21 -21 51v368
q0 30 21 51l82 84q21 21 50 21h134q29 0 50 -21l82 -84q21 -21 21 -51v-368zM330 204v272q0 19 -20 39.5t-39 20.5h-42q-19 0 -39 -20.5t-20 -39.5v-272q0 -19 20 -39.5t39 -20.5h42q19 0 39 20.5t20 39.5z" />
    <glyph glyph-name="otilde" unicode="&#xf5;" horiz-adv-x="520" 
d="M460 782q-29 -30 -69 -45q-18 -7 -39 -7q-27 0 -52 7q-36 14 -109 40q-41 14 -67 -17q-9 -9 -23 -9q-13 0 -22 9l-39 40q-9 9 -9 22q0 14 9 23q48 54 118 54q27 0 51 -7q13 -4 104 -37q12 -4 24 -4q23 0 39 16q9 9 22 9q14 0 23 -9l39 -40q9 -9 9 -23q0 -13 -9 -22z
M470 156q0 -30 -21 -51l-82 -84q-21 -21 -50 -21h-134q-29 0 -50 21l-82 84q-21 21 -21 51v368q0 30 21 51l82 84q21 21 50 21h134q29 0 50 -21l82 -84q21 -21 21 -51v-368zM330 204v272q0 19 -20 39.5t-39 20.5h-42q-19 0 -39 -20.5t-20 -39.5v-272q0 -19 20 -39.5
t39 -20.5h42q19 0 39 20.5t20 39.5z" />
    <glyph glyph-name="odieresis" unicode="&#xf6;" horiz-adv-x="520" 
d="M380 770q0 -17 -11.5 -28.5t-28.5 -11.5t-28.5 11.5t-11.5 28.5t11.5 28.5t28.5 11.5t28.5 -11.5t11.5 -28.5zM200 770q0 -17 -11.5 -28.5t-28.5 -11.5t-28.5 11.5t-11.5 28.5t11.5 28.5t28.5 11.5t28.5 -11.5t11.5 -28.5zM470 156q0 -30 -21 -51l-82 -84
q-21 -21 -50 -21h-134q-29 0 -50 21l-82 84q-21 21 -21 51v368q0 30 21 51l82 84q21 21 50 21h134q29 0 50 -21l82 -84q21 -21 21 -51v-368zM330 204v272q0 19 -20 39.5t-39 20.5h-42q-19 0 -39 -20.5t-20 -39.5v-272q0 -19 20 -39.5t39 -20.5h42q19 0 39 20.5t20 39.5z" />
    <glyph glyph-name="divide" unicode="&#xf7;" 
d="M380 525q0 -17 -11.5 -28.5t-28.5 -11.5h-70q-17 0 -28.5 11.5t-11.5 28.5v50q0 17 11.5 28.5t28.5 11.5h70q17 0 28.5 -11.5t11.5 -28.5v-50zM580 305q0 -17 -11.5 -28.5t-28.5 -11.5h-470q-17 0 -28.5 11.5t-11.5 28.5v70q0 17 11.5 28.5t28.5 11.5h470
q17 0 28.5 -11.5t11.5 -28.5v-70zM380 105q0 -17 -11.5 -28.5t-28.5 -11.5h-70q-17 0 -28.5 11.5t-11.5 28.5v50q0 17 11.5 28.5t28.5 11.5h70q17 0 28.5 -11.5t11.5 -28.5v-50z" />
    <glyph glyph-name="oslash" unicode="&#xf8;" horiz-adv-x="527" 
d="M474 156q0 -31 -20 -51l-83 -84q-21 -21 -50 -21h-134q-22 0 -38 11q-12 -11 -29 -11q-12 0 -22 6l-46 27q-22 13 -22 38q0 12 6 23l11 20q-13 18 -13 42v368q0 31 20 51l83 84q21 21 50 21h134q21 0 38 -11q12 11 28 11q12 0 22 -6l46 -27q22 -13 22 -38q0 -12 -6 -23
l-10 -20q13 -18 13 -42v-368zM282 535q-5 1 -7 1h-42q-19 0 -39 -20.5t-20 -39.5v-135zM334 204v134l-108 -194h7h42q19 0 39 20.5t20 39.5z" />
    <glyph glyph-name="ugrave" unicode="&#xf9;" horiz-adv-x="520" 
d="M286 724q-12 -12 -55 6l-136 57q-11 5 -11 18q0 15 11 26l40 40q9 9 22 9q14 0 23 -9l96 -96q16 -16 16 -36q0 -9 -6 -15zM470 156q0 -30 -21 -51l-82 -84q-21 -21 -50 -21h-134q-29 0 -50 21l-82 84q-21 21 -21 51v479q0 19 13 32t31 13h52q18 0 31 -13t13 -32v-431
q0 -19 20 -39.5t39 -20.5h42q19 0 39 20.5t20 39.5v431q0 19 13 32t31 13h52q18 0 31 -13t13 -32v-479z" />
    <glyph glyph-name="uacute" unicode="&#xfa;" horiz-adv-x="520" 
d="M405 787l-136 -57q-43 -18 -55 -6q-6 6 -6 15q0 20 16 36l96 96q9 9 23 9q13 0 22 -9l40 -40q11 -11 11 -26q0 -13 -11 -18zM470 156q0 -30 -21 -51l-82 -84q-21 -21 -50 -21h-134q-29 0 -50 21l-82 84q-21 21 -21 51v479q0 19 13 32t31 13h52q18 0 31 -13t13 -32v-431
q0 -19 20 -39.5t39 -20.5h42q19 0 39 20.5t20 39.5v431q0 19 13 32t31 13h52q18 0 31 -13t13 -32v-479z" />
    <glyph glyph-name="ucircumflex" unicode="&#xfb;" horiz-adv-x="520" 
d="M379 730q1 -5 -9 -5q-20 0 -46 11l-74 31l-74 -31q-26 -11 -46 -11q-10 0 -9 5q-8 -1 -8 10q0 27 18 42l97 80q15 12 22 9q7 3 22 -9l97 -80q18 -15 18 -42q0 -11 -8 -10zM470 156q0 -30 -21 -51l-82 -84q-21 -21 -50 -21h-134q-29 0 -50 21l-82 84q-21 21 -21 51v479
q0 19 13 32t31 13h52q18 0 31 -13t13 -32v-431q0 -19 20 -39.5t39 -20.5h42q19 0 39 20.5t20 39.5v431q0 19 13 32t31 13h52q18 0 31 -13t13 -32v-479z" />
    <glyph glyph-name="udieresis" unicode="&#xfc;" horiz-adv-x="520" 
d="M380 770q0 -17 -11.5 -28.5t-28.5 -11.5t-28.5 11.5t-11.5 28.5t11.5 28.5t28.5 11.5t28.5 -11.5t11.5 -28.5zM200 770q0 -17 -11.5 -28.5t-28.5 -11.5t-28.5 11.5t-11.5 28.5t11.5 28.5t28.5 11.5t28.5 -11.5t11.5 -28.5zM470 156q0 -30 -21 -51l-82 -84
q-21 -21 -50 -21h-134q-29 0 -50 21l-82 84q-21 21 -21 51v479q0 19 13 32t31 13h52q18 0 31 -13t13 -32v-431q0 -19 20 -39.5t39 -20.5h42q19 0 39 20.5t20 39.5v431q0 19 13 32t31 13h52q18 0 31 -13t13 -32v-479z" />
    <glyph glyph-name="yacute" unicode="&#xfd;" horiz-adv-x="520" 
d="M405 787l-136 -57q-43 -18 -55 -6q-6 6 -6 15q0 20 16 36l96 96q9 9 23 9q13 0 22 -9l40 -40q11 -11 11 -26q0 -13 -11 -18zM470 457q0 -30 -21 -51l-129 -132v-4v-225q0 -19 -13 -32t-31 -13h-52q-18 0 -31 13t-13 32v225v4l-129 132q-21 21 -21 51v178q0 19 13 32
t31 13h52q18 0 31 -13t13 -32v-130q0 -21 31 -53q20 -18 39 -36q3 -4 10 -4t10 4q19 18 39 36q31 32 31 53v130q0 19 13 32t31 13h52q18 0 31 -13t13 -32v-178z" />
    <glyph glyph-name="thorn" unicode="&#xfe;" horiz-adv-x="1000" 
d="M938 468q0 -12 -12 -12h-152q-24 0 -24 24v12q0 12 12 12h48q8 0 12 -12t12 -12h44q12 0 12 12v48q0 12 -12 12h-104q-24 0 -24 24v84q0 12 12 12h164q12 0 12 -12v-192zM730 468q0 -12 -12 -12h-152q-24 0 -24 24v12q0 12 12 12h48q8 0 12 -12t12 -12h44q12 0 12 12v48
q0 12 -12 12h-104q-24 0 -24 24v84q0 12 12 12h164q12 0 12 -12v-192zM938 244q0 -24 -24 -24h-140q-24 0 -24 24v36q0 12 12 12h48q12 0 12 -12v-24q0 -12 12 -12h44q12 0 12 12v48q0 12 -12 12h-44q-12 0 -12 12t12 12h44q12 0 12 12v48q0 12 -12 12h-44q-12 0 -12 -12
v-24q0 -12 -12 -12h-48q-12 0 -12 12v36q0 24 24 24h140q24 0 24 -24v-72q0 -7 -3 -12q3 -5 3 -12v-72zM522 468q0 -12 -12 -12h-152q-24 0 -24 24v12q0 12 12 12h48q8 0 12 -12t12 -12h44q12 0 12 12v48q0 12 -12 12h-104q-24 0 -24 24v84q0 12 12 12h164q12 0 12 -12v-192
zM938 150q0 -10 -10 -10h-28q-10 0 -10 -10v-100q0 -10 -10 -10h-40q-10 0 -10 10v100q0 10 -10 10h-10q-10 0 -10 10t10 10h10q10 0 10 10v20q0 10 10 10h40q10 0 10 -10v-20q0 -10 10 -10h28q10 0 10 -10zM730 244q0 -24 -24 -24h-204q-12 0 -12 12v192q0 12 12 12h48
q12 0 12 -12v-168q0 -12 12 -12h12q12 0 12 12v120q0 12 12 12h24q12 0 12 -12v-120q0 -12 12 -12h12q12 0 12 12v168q0 12 12 12h24q12 0 12 -12v-180zM314 468q0 -12 -12 -12h-48q-12 0 -12 12v144q0 8 -12 12t-12 12v24q0 12 12 12h72q12 0 12 -12v-192zM785 40
q0 -20 -20 -20h-108q-20 0 -20 20v10q0 10 10 10h40q7 0 10 -10t10 -10h28q10 0 10 10v20q0 10 -10 10h-78q-20 0 -20 20v40q0 20 20 20h108q20 0 20 -20v-10q0 -10 -10 -10h-20q-7 0 -10 10t-10 10h-28q-10 0 -10 -10v-20q0 -10 10 -10h58q20 0 20 -20v-40zM470 232
q0 -12 -12 -12h-164q-12 0 -12 12v192q0 12 12 12h152q24 0 24 -24v-36q0 -12 -12 -12h-24q-12 0 -12 12v24q0 12 -12 12h-44q-12 0 -12 -12v-144q0 -12 12 -12h44q12 0 12 12v48q0 12 -12 12h-33q-11 0 -11 12t11 12h69q24 0 24 -24v-84zM199 527q0 -14 -11 -25t-25 -11
h-65q-14 0 -25 11t-11 25v60q0 14 11 25t25 11h65q14 0 25 -11t11 -25v-60zM267 434l-2 -15q-3 7 -7 4q-2 0 -7 -3q11 11 16 14zM249 418l-5 -9l-4 3l6 8zM622 30q0 -10 -10 -10h-128q-10 0 -10 10v50q0 10 10 10h88q10 0 10 10v30q0 10 -10 10h-28q-10 0 -10 -10v-10
q0 -10 -10 -10h-40q-10 0 -10 10v30q0 10 10 10h118q20 0 20 -20v-110zM156 407q0 1 -17 12q-12 -3 -21 -14q9 17 16 22q10 2 22 -20zM248 276q-5 -5 -14 -12l2 -11q-4 2 -11 9l1 3q1 1 -9 11q0 10 6 16l23 -2zM459 30q0 -10 -10 -10h-138q-10 0 -10 10v160q0 10 10 10h128
q20 0 20 -20v-30q0 -10 -10 -10h-20q-10 0 -10 10v20q0 10 -10 10h-38q-10 0 -10 -10v-120q0 -10 10 -10h38q10 0 10 10v40q0 10 -10 10h-28q-10 0 -10 10t10 10h58q20 0 20 -20v-70zM266 314q-8 10 -8 19q-6 0 -6 -2q0 2 -7 9q-2 -1 -15 -14q-1 11 2 16q8 0 13 2
q0 1 -10 11q-5 -3 -13 -11q0 -6 5 -18q-2 0 -6.5 1t-6.5 1q-4 -2 -13 -9q4 4 7 17q-3 5 -11 14h-15q-10 0 -15 -7q10 -3 18 0q3 -7 10 -19q-9 2 -25 11q-6 -4 -20 -12q-12 -16 -12 -22q0 -5 2 -6q4 5 12 12q4 0 9 14q16 -8 15 -8q-3 -3 -12 -6q-9 -6 -16 -16q0 -2 2 -6
q1 -3 0 -4l-7 -7q-1 -4 -2 -21q0 -3 3 -6q7 7 6 7q9 -14 26 -40q-3 0 -16 1t-25 1q0 1 -3 -1t-5 -2q-7 4 -18 2q-14 -2 -22 0q-8 -1 -14 5q7 0 15 8q-7 4 -10 -1q3 2 -1 10l-7 -12l-8 8l2 16q5 2 6 1q1 -3 2.5 -6.5t13.5 -4.5l7 7q-5 5 -2 7q4 8 -3 18q-2 1 -6 9
q-1 -1 -9 -1q3 5 10 13q0 3 -4 7q-6 -4 -6 -11q-6 7 -4 9q7 4 21 27q14 20 22 23q-5 16 0 27v-3q3 -3 15 -7q1 1 4.5 3.5t4.5 3.5q-2 10 -7 29l3 12q0 -6 5 -4q3 -29 18 -29q1 6 -5 10h3q1 5 5 14q2 -2 8 -7.5t10 -9.5q3 0 3 5q-6 2 -12 8h3q0 2 12 6h8q9 0 22 -5q3 0 17 7
q-4 -5 -16 -17q4 -2 15 -7l-6 12q17 -1 14 -12h12l-2 16q11 10 17 10q-5 -3 -10 -17v-12q9 -9 13 -19v-47zM226 249q0 -10 -9 -19q-6 0 -8 2q0 -3 -2 -10q1 1 -4 8q6 2 0 12l8 -5q6 0 15 12zM205 257q-6 0 -6 -7q0 4 -1 6.5t-5 1.5q-4 -9 2 -22q-7 4 -11 18h-9v19
q10 -7 30 -16zM191 216q-7 1 -11 -3q1 2 -6 15q0 1 2 4.5t1 5.5q4 2 -10 2q-1 10 -4 28q6 -6 9 -15q4 -3 12 -7q0 -20 2 -16q-2 -1 5 -14zM65 279q2 -1 1 -4q0 -4 -3 -6q-2 3 -1 10h3zM221 30q0 -10 -10 -10h-20q-10 0 -10 10l-20 60q-1 1 -4.5 5.5t-5.5 4.5h-18
q-10 0 -10 -10v-60q0 -10 -10 -10h-40q-10 0 -10 10v160q0 10 10 10h128q20 0 20 -20v-60q0 -20 -20 -20h-4zM890 588v48q0 12 -12 12h-44q-12 0 -12 -12v-48q0 -12 12 -12h44q12 0 12 12zM798 588v48q0 12 -12 12t-12 -12v-48q0 -12 12 -12t12 12zM682 588v48q0 12 -12 12
h-44q-12 0 -12 -12v-48q0 -12 12 -12h44q12 0 12 12zM590 588v48q0 12 -12 12t-12 -12v-48q0 -12 12 -12t12 12zM798 400q0 12 -12 12t-12 -12t12 -12t12 12zM474 588v48q0 12 -12 12h-44q-12 0 -12 -12v-48q0 -12 12 -12h44q12 0 12 12zM798 256q0 12 -12 12t-12 -12
t12 -12t12 12zM382 588v48q0 12 -12 12t-12 -12v-48q0 -12 12 -12t12 12zM870 50v120q0 10 -10 10t-10 -10v-120q0 -10 10 -10t10 10zM538 256v144q0 12 -12 12t-12 -12v-144q0 -12 12 -12t12 12zM290 492v144q0 12 -12 12t-12 -12v-144q0 -12 12 -12t12 12zM677 110v20
q0 10 -10 10t-10 -10v-20q0 -10 10 -10t10 10zM187 527v60q0 24 -24 24h-65q-24 0 -24 -24v-60q0 -24 24 -24h65q24 0 24 24zM330 256v144q0 12 -12 12t-12 -12v-144q0 -12 12 -12t12 12zM514 130q0 10 -10 10t-10 -10t10 -10t10 10zM240 375l-6 9l-3 -2l5 -9zM582 50v10
q0 10 -10 10h-28q-10 0 -10 -10v-10q0 -10 10 -10h28q10 0 10 10zM514 50v10q0 10 -10 10t-10 -10v-10q0 -10 10 -10t10 10zM141 367v11h-4v-11h4zM141 363l-3 2l-12 -16l4 -2zM341 50v120q0 10 -10 10t-10 -10v-120q0 -10 10 -10t10 10zM102 227q-1 1 -5.5 4t-5.5 4
q0 -5 -5 -12q16 0 16 4zM181 130v40q0 10 -10 10h-38q-10 0 -10 -10v-40q0 -10 10 -10h38q10 0 10 10zM103 50v120q0 10 -10 10t-10 -10v-120q0 -10 10 -10t10 10zM175 527q0 -12 -12 -12h-71q-6 0 -6 6v72q0 6 6 6h71q12 0 12 -12v-12q0 -6 -6 -6h-12q-6 0 -6 6v6q0 6 -6 6
h-17q-6 0 -6 -6v-48q0 -6 6 -6h17q6 0 6 6v6q0 6 6 6h12q6 0 6 -6v-12zM110 533v48q0 6 -6 6t-6 -6v-48q0 -6 6 -6t6 6z" />
    <glyph glyph-name="ydieresis" unicode="&#xff;" horiz-adv-x="520" 
d="M380 770q0 -17 -11.5 -28.5t-28.5 -11.5t-28.5 11.5t-11.5 28.5t11.5 28.5t28.5 11.5t28.5 -11.5t11.5 -28.5zM200 770q0 -17 -11.5 -28.5t-28.5 -11.5t-28.5 11.5t-11.5 28.5t11.5 28.5t28.5 11.5t28.5 -11.5t11.5 -28.5zM470 457q0 -30 -21 -51l-129 -132v-4v-225
q0 -19 -13 -32t-31 -13h-52q-18 0 -31 13t-13 32v225v4l-129 132q-21 21 -21 51v178q0 19 13 32t31 13h52q18 0 31 -13t13 -32v-130q0 -21 31 -53q20 -18 39 -36q3 -4 10 -4t10 4q19 18 39 36q31 32 31 53v130q0 19 13 32t31 13h52q18 0 31 -13t13 -32v-178z" />
    <glyph glyph-name="OE" unicode="&#x152;" horiz-adv-x="1030" 
d="M980 40q0 -17 -11.5 -28.5t-28.5 -11.5h-470q-18 0 -30 14q-19 -14 -44 -14h-181q-31 0 -53 22l-110 110q-22 22 -22 53v480q0 31 22 53l110 110q22 22 53 22h181q25 0 44 -14q12 14 30 14h470q17 0 28.5 -11.5t11.5 -28.5v-70q0 -17 -11.5 -28.5t-28.5 -11.5h-320
q-17 0 -28.5 -11.5t-11.5 -28.5v-120q0 -17 11.5 -28.5t28.5 -11.5h220q17 0 28.5 -11.5t11.5 -28.5v-70q0 -17 -11.5 -28.5t-28.5 -11.5h-220q-17 0 -28.5 -11.5t-11.5 -28.5v-120q0 -17 11.5 -28.5t28.5 -11.5h320q17 0 28.5 -11.5t11.5 -28.5v-70zM430 247v356
q0 31 -22 53l-22 22q-22 22 -53 22h-56q-31 0 -53 -22l-22 -22q-22 -22 -22 -53v-356q0 -31 22 -53l22 -22q22 -22 53 -22h56q31 0 53 22l22 22q22 22 22 53z" />
    <glyph glyph-name="oe" unicode="&#x153;" horiz-adv-x="840" 
d="M790 45q0 -19 -13 -32t-32 -13h-362q-17 0 -29 10q-15 -10 -38 -10h-133q-29 0 -50 21l-82 84q-21 21 -21 51v368q0 30 21 51l82 84q21 21 50 21h133q23 0 38 -10q12 10 29 10h362q19 0 32 -13t13 -32v-54q0 -19 -13 -32t-32 -13h-246q-17 0 -17 -16v-92q0 -16 17 -16
h169q19 0 32 -13t13 -32v-54q0 -19 -13 -32t-32 -13h-169q-17 0 -17 -16v-92q0 -16 17 -16h246q19 0 32 -13t13 -32v-54zM330 204v272q0 19 -20 39.5t-39 20.5h-42q-19 0 -39 -20.5t-20 -39.5v-272q0 -19 20 -39.5t39 -20.5h42q19 0 39 20.5t20 39.5z" />
    <glyph glyph-name="Scaron" unicode="&#x160;" 
d="M466 1069q10 1 10 -13q0 -34 -22 -52l-121 -100q-19 -16 -28 -12q-9 -4 -28 12l-121 100q-22 18 -22 52q0 14 10 13q-1 6 11 6q24 0 58 -14l92 -38l92 38q34 14 58 14q12 0 11 -6zM582 185q0 -31 -22 -53l-110 -110q-22 -22 -53 -22h-180q-31 0 -53 22l-110 110
q-22 22 -22 53v62q0 17 11.5 28.5t28.5 11.5h70q17 0 28.5 -11.5t11.5 -28.5q0 -31 22 -53l22 -22q22 -22 53 -22h56q31 0 53 22l22 22q22 22 22 53v6q0 31 -22 53l-22 22q-22 22 -53 22h-118q-31 0 -53 22l-110 110q-22 22 -22 53v130q0 31 22 53l110 110q22 22 53 22h180
q31 0 53 -22l110 -110q22 -22 22 -53v-62q0 -17 -11.5 -28.5t-28.5 -11.5h-70q-16 0 -28 12t-12 28q0 31 -22 53l-22 22q-22 22 -53 22h-56q-31 0 -53 -22l-22 -22q-22 -22 -22 -53v-6q0 -31 22 -53l22 -22q22 -22 53 -22h118q31 0 53 -22l110 -110q22 -22 22 -53v-130z" />
    <glyph glyph-name="scaron" unicode="&#x161;" horiz-adv-x="520" 
d="M411 907q10 1 10 -13q0 -34 -22 -52l-121 -100q-19 -16 -28 -12q-9 -4 -28 12l-121 100q-22 18 -22 52q0 14 10 13q-1 6 11 6q24 0 58 -14l92 -38l92 38q34 14 58 14q12 0 11 -6zM470 156q0 -30 -21 -51l-82 -84q-21 -21 -50 -21h-134q-29 0 -50 21l-82 84q-21 21 -21 51
v48q0 19 13 32t31 13h52q18 0 31 -13t13 -32t20 -39.5t39 -20.5h42q19 0 39 20.5t20 39.5v4q0 19 -20 39.5t-39 20.5h-88q-29 0 -50 21l-82 85q-21 21 -21 50v100q0 30 21 51l82 84q21 21 50 21h134q29 0 50 -21l82 -84q21 -21 21 -51v-48q0 -19 -13 -32t-31 -13h-52
q-18 0 -31 13t-13 32t-20 39.5t-39 20.5h-42q-19 0 -39 -20.5t-20 -39.5v-4q0 -19 20 -39.5t39 -20.5h88q29 0 50 -21l82 -85q21 -21 21 -50v-100z" />
    <glyph glyph-name="Ydieresis" unicode="&#x178;" 
d="M435 925q0 -17 -11.5 -28.5t-28.5 -11.5t-28.5 11.5t-11.5 28.5t11.5 28.5t28.5 11.5t28.5 -11.5t11.5 -28.5zM255 925q0 -17 -11.5 -28.5t-28.5 -11.5t-28.5 11.5t-11.5 28.5t11.5 28.5t28.5 11.5t28.5 -11.5t11.5 -28.5zM580 578q0 -31 -22 -53l-175 -175q-3 -3 -3 -17
v-293q0 -17 -11.5 -28.5t-28.5 -11.5h-70q-17 0 -28.5 11.5t-11.5 28.5v293q0 14 -3 17l-175 175q-22 22 -22 53v232q0 17 11.5 28.5t28.5 11.5h70q17 0 28.5 -11.5t11.5 -28.5v-170q0 -31 22 -53l75 -75q8 -12 28 -12t28 12l75 75q22 22 22 53v170q0 17 11.5 28.5
t28.5 11.5h70q17 0 28.5 -11.5t11.5 -28.5v-232z" />
    <glyph glyph-name="florin" unicode="&#x192;" horiz-adv-x="800" 
d="M725 534q0 -10 -31 -12q-18 -1 -43 -1q21 -22 41 -45q0 -9 -8 -9q-12 0 -41 42q9 -63 9 -57q0 -10 -11 -10q-13 0 -13 47q0 13 1 31h-46q-6 0 -6 6q0 4 49 10q-35 41 -35 67q0 10 11 10q8 0 10 -9q7 -27 20 -53q1 14 8 32q9 23 18 23q11 0 11 -10q0 -4 -10 -14.5
t-11.5 -14t-5.5 -29.5q51 7 72 7q11 0 11 -11zM739 242q-2 -2 -29 -8t-32 -6q-7 0 -6 30q-35 -27 -67 -27q-20 0 -36 13t-16 33q0 31 31 47q26 9 53 18q35 16 35 35q0 24 -28 24q-14 0 -35.5 -21.5t-28.5 -21.5q-16 0 -16 18q0 20 33 33q27 11 51 11q64 0 64 -79v-23
q-1 -31 -1 -23q0 -30 9 -36q7 -1 19 -12v-5zM495 410l-1 -5q-1 -1 -29.5 -7t-32.5 -6q-7 0 -6 29q-35 -27 -66 -27q-20 0 -36.5 13.5t-16.5 33.5q0 31 31 47q26 9 53 18q35 15 35 34q0 24 -28 24q-14 0 -35 -21t-29 -21q-16 0 -16 18q0 20 33 33q27 11 51 11q64 0 64 -79
v-23q-1 -31 -1 -23q0 -30 9 -36q9 -2 21 -13zM572 210q-4 -11 -67 -20q-9 4 -8 26q-30 -22 -61 -22q-33 0 -55 30q-20 27 -20 62q0 39 26.5 68t65.5 29q24 0 45 -12v81q0 7 -4 13l-13 1l-7 7q6 19 78 47l8 -8q-20 -26 -20 -38v-231q0 -16 15 -21t17 -12zM335 504
q0 -6 -16.5 -11t-16.5 -23v-222q0 -7 -4 -13q-6 -2 -12 -2q-18 0 -20 10q-31 144 -119 197v-163q0 -16 16.5 -22t16.5 -12q0 -8 -17 -10q-12 -2 -32 -1l-22 1q-26 0 -26 10q0 6 16 12t16 22v186q-9 8 -16 8t-17 -10t-13 -12l-8 7q7 31 12 40q10 24 30 24q46 0 97 -50
q39 -38 70 -91l1 61q1 45 -10 51q-2 0 -12.5 2.5t-10.5 10.5q0 10 27 10q70 0 70 -10zM672 338q-1 -1 -46 -21q-30 -13 -30 -33q0 -26 30 -26q46 0 46 80zM426 501q-2 -2 -45 -21q-30 -13 -30 -33q0 -26 29 -26q46 0 46 80zM498 278v70q-23 15 -43 15q-25 0 -39.5 -20.5
t-14.5 -47.5q0 -28 14 -49q16 -24 42 -24q41 0 41 56z" />
    <glyph glyph-name="circumflex" unicode="&#x2c6;" horiz-adv-x="422" 
d="M362 723q1 -6 -11 -6q-24 0 -58 14l-92 38l-92 -38q-34 -14 -58 -14q-12 0 -11 6q-10 -1 -10 13q0 34 22 52l121 100q19 16 28 12q9 4 28 -12l121 -100q22 -18 22 -52q0 -14 -10 -13z" />
    <glyph glyph-name="tilde" unicode="&#x2dc;" 
d="M568 504q-35 -36 -87 -56q-24 -9 -49 -9q-36 0 -65 8q-45 17 -136 50q-11 4 -26 4q-37 0 -57 -24q-12 -12 -29 -12q-16 0 -28 12l-49 49q-12 12 -12 28q0 17 12 29q60 67 148 67q33 0 64 -9q19 -5 130 -46q15 -5 30 -5q28 0 48 20q12 12 28 12q17 0 29 -12l49 -49
q12 -12 12 -29q0 -16 -12 -28z" />
    <glyph glyph-name="endash" unicode="&#x2013;" horiz-adv-x="520" 
d="M470 305q0 -17 -11.5 -28.5t-28.5 -11.5h-360q-17 0 -28.5 11.5t-11.5 28.5v70q0 17 11.5 28.5t28.5 11.5h360q17 0 28.5 -11.5t11.5 -28.5v-70z" />
    <glyph glyph-name="emdash" unicode="&#x2014;" 
d="M580 305q0 -17 -11.5 -28.5t-28.5 -11.5h-470q-17 0 -28.5 11.5t-11.5 28.5v70q0 17 11.5 28.5t28.5 11.5h470q17 0 28.5 -11.5t11.5 -28.5v-70z" />
    <glyph glyph-name="quoteleft" unicode="&#x2018;" horiz-adv-x="230" 
d="M180 690q0 -17 -11.5 -28.5t-28.5 -11.5h-70q-17 0 -28.5 11.5t-11.5 28.5v170q0 17 11.5 28.5t28.5 11.5h70q17 0 28.5 -11.5t11.5 -28.5v-170z" />
    <glyph glyph-name="quoteright" unicode="&#x2019;" horiz-adv-x="230" 
d="M180 690q0 -17 -11.5 -28.5t-28.5 -11.5h-70q-17 0 -28.5 11.5t-11.5 28.5v170q0 17 11.5 28.5t28.5 11.5h70q17 0 28.5 -11.5t11.5 -28.5v-170z" />
    <glyph glyph-name="quotesinglbase" unicode="&#x201a;" horiz-adv-x="230" 
d="M180 0q0 -17 -11.5 -28.5t-28.5 -11.5h-70q-17 0 -28.5 11.5t-11.5 28.5v170q0 17 11.5 28.5t28.5 11.5h70q17 0 28.5 -11.5t11.5 -28.5v-170z" />
    <glyph glyph-name="quotedblleft" unicode="&#x201c;" horiz-adv-x="460" 
d="M410 690q0 -17 -11.5 -28.5t-28.5 -11.5h-70q-17 0 -28.5 11.5t-11.5 28.5v170q0 17 11.5 28.5t28.5 11.5h70q17 0 28.5 -11.5t11.5 -28.5v-170zM180 690q0 -17 -11.5 -28.5t-28.5 -11.5h-70q-17 0 -28.5 11.5t-11.5 28.5v170q0 17 11.5 28.5t28.5 11.5h70
q17 0 28.5 -11.5t11.5 -28.5v-170z" />
    <glyph glyph-name="quotedblright" unicode="&#x201d;" horiz-adv-x="460" 
d="M410 690q0 -17 -11.5 -28.5t-28.5 -11.5h-70q-17 0 -28.5 11.5t-11.5 28.5v170q0 17 11.5 28.5t28.5 11.5h70q17 0 28.5 -11.5t11.5 -28.5v-170zM180 690q0 -17 -11.5 -28.5t-28.5 -11.5h-70q-17 0 -28.5 11.5t-11.5 28.5v170q0 17 11.5 28.5t28.5 11.5h70
q17 0 28.5 -11.5t11.5 -28.5v-170z" />
    <glyph glyph-name="quotedblbase" unicode="&#x201e;" horiz-adv-x="460" 
d="M410 0q0 -17 -11.5 -28.5t-28.5 -11.5h-70q-17 0 -28.5 11.5t-11.5 28.5v170q0 17 11.5 28.5t28.5 11.5h70q17 0 28.5 -11.5t11.5 -28.5v-170zM180 0q0 -17 -11.5 -28.5t-28.5 -11.5h-70q-17 0 -28.5 11.5t-11.5 28.5v170q0 17 11.5 28.5t28.5 11.5h70q17 0 28.5 -11.5
t11.5 -28.5v-170z" />
    <glyph glyph-name="dagger" unicode="&#x2020;" 
d="M580 610q0 -17 -11.5 -28.5t-28.5 -11.5h-120q-17 0 -28.5 -11.5t-11.5 -28.5v-530l-75 -200q-75 179 -75 200v530q0 17 -11.5 28.5t-28.5 11.5h-120q-17 0 -28.5 11.5t-11.5 28.5v70q0 17 11.5 28.5t28.5 11.5h120q17 0 28.5 11.5t11.5 28.5v150q0 17 11.5 28.5
t28.5 11.5h70q17 0 28.5 -11.5t11.5 -28.5v-150q0 -17 11.5 -28.5t28.5 -11.5h120q17 0 28.5 -11.5t11.5 -28.5v-70z" />
    <glyph glyph-name="daggerdbl" unicode="&#x2021;" 
d="M580 360q0 -17 -11.5 -28.5t-28.5 -11.5h-120q-17 0 -28.5 -11.5t-11.5 -28.5v-280l-75 -200q-75 179 -75 200v280q0 17 -11.5 28.5t-28.5 11.5h-120q-17 0 -28.5 11.5t-11.5 28.5v70q0 17 11.5 28.5t28.5 11.5h120q17 0 28.5 11.5t11.5 28.5v20q0 17 -11.5 28.5
t-28.5 11.5h-120q-17 0 -28.5 11.5t-11.5 28.5v70q0 17 11.5 28.5t28.5 11.5h120q17 0 28.5 11.5t11.5 28.5v150q0 17 11.5 28.5t28.5 11.5h70q17 0 28.5 -11.5t11.5 -28.5v-150q0 -17 11.5 -28.5t28.5 -11.5h120q17 0 28.5 -11.5t11.5 -28.5v-70q0 -17 -11.5 -28.5
t-28.5 -11.5h-120q-17 0 -28.5 -11.5t-11.5 -28.5v-20q0 -17 11.5 -28.5t28.5 -11.5h120q17 0 28.5 -11.5t11.5 -28.5v-70z" />
    <glyph glyph-name="bullet" unicode="&#x2022;" horiz-adv-x="230" 
d="M180 340q0 -31 -22 -53t-53 -22t-53 22t-22 53t22 53t53 22t53 -22t22 -53z" />
    <glyph glyph-name="ellipsis" unicode="&#x2026;" 
d="M580 75q0 -31 -22 -53t-53 -22t-53 22t-22 53t22 53t53 22t53 -22t22 -53zM380 75q0 -31 -22 -53t-53 -22t-53 22t-22 53t22 53t53 22t53 -22t22 -53zM180 75q0 -31 -22 -53t-53 -22t-53 22t-22 53t22 53t53 22t53 -22t22 -53z" />
    <glyph glyph-name="perthousand" unicode="&#x2030;" horiz-adv-x="945" 
d="M895 129q0 -53 -35.5 -91t-86.5 -38h-20q-51 0 -86.5 38t-35.5 91v50q0 53 35.5 91t86.5 38h20q51 0 86.5 -38t35.5 -91v-50zM294 671q0 -53 -35.5 -91t-86.5 -38h-20q-51 0 -86.5 38t-35.5 91v50q0 53 35.5 91t86.5 38h20q51 0 86.5 -38t35.5 -91v-50zM575 742
l-410 -710q-12 -20 -35 -20q-10 0 -19 5l-61 35q-20 11 -20 34q0 11 6 21l410 710q12 20 34 20q11 0 20 -5l61 -35q20 -11 20 -34q0 -11 -6 -21zM580 129q0 -53 -35.5 -91t-86.5 -38h-20q-51 0 -86.5 38t-35.5 91v50q0 53 35.5 91t86.5 38h20q51 0 86.5 -38t35.5 -91v-50z
M793 129v50q0 21 -20 21h-20q-20 0 -20 -21v-50q0 -21 20 -21h20q20 0 20 21zM192 671v50q0 21 -20 21h-20q-20 0 -20 -21v-50q0 -21 20 -21h20q20 0 20 21zM478 129v50q0 21 -20 21h-20q-20 0 -20 -21v-50q0 -21 20 -21h20q20 0 20 21z" />
    <glyph glyph-name="guilsinglleft" unicode="&#x2039;" horiz-adv-x="389" 
d="M299 61q-16 0 -28 12l-218 216q-23 23 -23 51t23 51l218 216q12 12 28 12t28 -12t12 -28t-12 -28l-180 -180q-11 -11 -13 -31q2 -20 13 -31l180 -180q12 -12 12 -28t-12 -28t-28 -12z" />
    <glyph glyph-name="guilsinglright" unicode="&#x203a;" horiz-adv-x="389" 
d="M339 340q0 -28 -23 -51l-218 -216q-12 -12 -28 -12t-28 12t-12 28t12 28l180 180q11 11 13 31q-2 20 -13 31l-180 180q-12 12 -12 28t12 28t28 12t28 -12l218 -216q23 -23 23 -51z" />
    <glyph glyph-name="trademark" unicode="&#x2122;" horiz-adv-x="545" 
d="M495 483q0 -23 -22 -23h-26q-22 0 -22 23v146l-11 -19q-8 -15 -29 -15t-29 15l-11 19v-146q0 -23 -22 -23h-26q-22 0 -22 23v295q0 22 22 22h13q14 0 25 -11l50 -87l49 87q11 11 26 11h13q22 0 22 -22v-295zM250 751q0 -23 -22 -23h-45q-8 0 -8 -8v-237q0 -23 -22 -23
h-26q-22 0 -22 23v237q0 8 -8 8h-45q-22 0 -22 23v27q0 22 22 22h176q22 0 22 -22v-27z" />
  </font>
</defs>
</svg>
