<?xml version="1.0" encoding="UTF-8"?><svg xmlns="http://www.w3.org/2000/svg" viewBox="0 0 563 382"><defs><style>.h{fill:#fff;}.i{fill:#0969c3;}</style></defs><g id="a"/><g id="b"/><g id="c"/><g id="d"/><g id="e"><g><rect class="i" x="-.32" y="2.75" width="563.22" height="378.79" rx="31.79" ry="31.79"/><g><path id="f" class="h" d="M387.46,121.88c-25.6,0-37.55-1.65-54.62,11.57-16.9,13.1-21.46,39.03-39.17,89.08-13.61,38.47-24.2,68.08-30.01,87.11-1.81,5.93-5.63,18.82-17.08,24.48-3.8,1.88-8.11,2.78-12.93,2.7h-25.13c-14.89,.23-24.9-8.83-30.01-27.18-12.8-49.48-22.8-78.51-30.01-87.11v85.02c.46,7.44-2.04,14.17-7.5,20.21-5.47,6.04-12.97,9.06-22.51,9.06h-32.11c-9.54,0-17.05-3.02-22.51-9.06-5.47-6.04-8.2-12.77-8.2-20.21V77.22c0-7.2,2.73-13.82,8.2-19.86,5.47-6.04,12.97-9.06,22.51-9.06h51.65c28.15,.23,47.23,14.87,57.24,43.9l25.83,65.51,25.83-65.51c1.03-4.19,6.5-24.41,26.85-36.16,12.46-7.19,30.38-7.74,30.38-7.74,0,0,170.36-.83,202.79-.83,0,.5,0,.99,0,1.48-.11,40.32-33.91,72.92-75.52,72.92h-43.95Z"/><path id="g" class="h" d="M500.96,270.44c-3.61-4.53-8.32-7.02-14.13-7.49h-99.82v-40.42h79.57c5.81-.46,10.52-2.96,14.13-7.49,3.6-4.53,5.41-9.7,5.41-15.51v-13.94c0-5.8-1.81-10.98-5.41-15.51-3.61-4.53-8.32-7.02-14.13-7.49h-79.57l.31-21.57c.07-5.1-4.16-9.27-9.42-9.32-14.04-.13-23.54-.8-37.82,10-17.49,13.23-27.73,54.56-42.53,100.33-1.82,5.64-2.27,23.67-2.27,41.86v6.61c0,13.23-1.51,27.66,5.12,36.38,6.63,8.71,17.96,9.69,25.17,9.92h161.24c5.81-.46,10.52-2.96,14.13-7.49,3.6-4.53,5.41-9.7,5.41-15.51v-27.88c0-5.8-1.81-10.98-5.41-15.51Z"/></g></g></g></svg>